SplineFontDB: 3.0
FontName: Bodoni-06-Book
FullName: Bodoni* 06 Book
FamilyName: Bodoni* 06
Weight: Book
Copyright: Copyright (c) 2020, indestructible type* (https://github.com/indestructible-type)
Version: 002.1
ItalicAngle: 0
UnderlinePosition: -200
UnderlineWidth: 0
Ascent: 1600
Descent: 400
InvalidEm: 0
LayerCount: 2
Layer: 0 0 "Back" 1
Layer: 1 0 "Fore" 0
PreferredKerning: 4
XUID: [1021 31 -699969567 16487490]
FSType: 0
OS2Version: 0
OS2_WeightWidthSlopeOnly: 0
OS2_UseTypoMetrics: 1
CreationTime: 1460762150
ModificationTime: 1588522468
PfmFamily: 17
TTFWeight: 400
TTFWidth: 5
LineGap: 0
VLineGap: 0
OS2TypoAscent: 2000
OS2TypoAOffset: 0
OS2TypoDescent: -800
OS2TypoDOffset: 0
OS2TypoLinegap: 0
OS2WinAscent: 2000
OS2WinAOffset: 0
OS2WinDescent: 800
OS2WinDOffset: 0
HheadAscent: 2000
HheadAOffset: 0
HheadDescent: -800
HheadDOffset: 0
OS2CapHeight: 1500
OS2XHeight: 920
OS2FamilyClass: 768
OS2Vendor: 'it* '
OS2UnicodeRanges: 00000001.00000000.00000000.00000000
Lookup: 1 0 0 "'smcp' Lowercase to Small Capitals lookup 8" { "'smcp' Lowercase to Small Capitals lookup 8-1"  } ['smcp' ('DFLT' <'dflt' > 'grek' <'dflt' > 'latn' <'dflt' > ) ]
Lookup: 1 0 0 "'c2sc' Capitals to Small Capitals lookup 7" { "'c2sc' Capitals to Small Capitals lookup 7-1"  } ['c2sc' ('DFLT' <'dflt' > 'grek' <'dflt' > 'latn' <'dflt' > ) ]
Lookup: 1 0 0 "'onum' Oldstyle Figures lookup 6" { "'onum' Oldstyle Figures lookup 6-1" ("oldstyle") } ['onum' ('DFLT' <'dflt' > 'grek' <'dflt' > 'latn' <'dflt' > ) ]
Lookup: 1 0 0 "'ss02' Style Set 2 lookup 4" { "'ss02' Style Set 2 lookup 4-1"  } ['ss02' ('DFLT' <'dflt' > 'grek' <'dflt' > 'latn' <'dflt' > ) ]
Lookup: 1 0 0 "'ss03' Style Set 3 lookup 5" { "'ss03' Style Set 3 lookup 5-1"  } ['ss03' ('DFLT' <'dflt' > 'grek' <'dflt' > 'latn' <'dflt' > ) ]
Lookup: 1 0 0 "'ss01' Style Set 1 lookup 2" { "'ss01' Style Set 1 lookup 2-1"  } ['ss01' ('DFLT' <'dflt' > 'grek' <'dflt' > 'latn' <'dflt' > ) ]

StartChar: ampersand
Encoding: 38 38 0
GlifName: ampersand
Width: 1607
Flags: HMW
LayerCount: 2
Fore
SplineSet
711 835 m 13
 670 887 l 5
 766 946 902 1056 902 1260 c 4
 902 1355 868 1457 718 1457 c 4
 564 1457 512 1384 512 1279 c 4
 512 1209 562 1108 648 980 c 6
 1260 73 l 5
 1538 73 l 5
 1538 0 l 5
 1070 0 l 5
 408 980 l 6
 356 1056 316 1157 316 1227 c 4
 316 1407 486 1520 718 1520 c 4
 932 1520 1095 1415 1095 1255 c 4
 1095 1038 922 944 711 835 c 13
545 818 m 5
 573 762 l 5
 402 670 300 576 300 355 c 4
 300 195 430 74 618 74 c 4
 971 74 1278 496 1318 900 c 5
 1393 900 l 5
 1332 455 1004 -20 538 -20 c 4
 272 -20 80 115 80 346 c 4
 80 637 469 781 545 818 c 5
1088 920 m 5
 1568 920 l 5
 1568 847 l 5
 1088 847 l 5
 1088 920 l 5
EndSplineSet
EndChar

StartChar: period
Encoding: 46 46 1
GlifName: period
Width: 399
Flags: HMW
LayerCount: 2
Fore
SplineSet
80 100 m 4
 80 166 134 221 200 221 c 4
 266 221 320 166 320 100 c 4
 320 34 266 -20 200 -20 c 4
 134 -20 80 34 80 100 c 4
EndSplineSet
EndChar

StartChar: zero
Encoding: 48 48 2
GlifName: zero
Width: 1239
Flags: HMW
LayerCount: 2
Fore
SplineSet
620 -20 m 4
 294 -20 80 324 80 750 c 4
 80 1176 313 1520 620 1520 c 4
 927 1520 1160 1176 1160 750 c 4
 1160 324 946 -20 620 -20 c 4
620 1453 m 4
 372 1453 311 1113 311 750 c 4
 311 387 352 47 620 47 c 4
 888 47 930 387 930 750 c 4
 930 1113 868 1453 620 1453 c 4
EndSplineSet
Substitution2: "'onum' Oldstyle Figures lookup 6-1" zero.oldstyle
Substitution2: "Tabular Numbers lookup" uniFF10
EndChar

StartChar: one
Encoding: 49 49 3
GlifName: one
Width: 869
VWidth: 2309
Flags: HMW
LayerCount: 2
Fore
SplineSet
100 73 m 5
 770 73 l 5
 770 0 l 5
 100 0 l 5
 100 73 l 5
134 1500 m 5
 550 1500 l 5
 550 20 l 5
 359 20 l 5
 359 1427 l 5
 134 1427 l 5
 134 1500 l 5
EndSplineSet
Substitution2: "'onum' Oldstyle Figures lookup 6-1" one.oldstyle
Substitution2: "Tabular Numbers lookup" uniFF11
EndChar

StartChar: two
Encoding: 50 50 4
GlifName: two
Width: 1099
VWidth: 2309
Flags: HMW
LayerCount: 2
Fore
SplineSet
1029 0 m 1
 80 0 l 1
 80 130 l 1
 512 557 l 2
 672 717 788 912 788 1100 c 0
 788 1313 662 1435 490 1435 c 0
 302 1435 177 1294 177 1084 c 1
 109 1084 l 1
 109 1124 172 1164 238 1164 c 0
 297 1164 355 1122 355 1052 c 0
 355 972 300 924 230 924 c 0
 160 924 107 980 107 1084 c 0
 107 1318 251 1520 550 1520 c 0
 832 1520 988 1341 988 1141 c 0
 988 941 908 832 801 727 c 2
 241 180 l 1
 957 180 l 1
 957 330 l 1
 1029 330 l 1
 1029 0 l 1
EndSplineSet
Substitution2: "'onum' Oldstyle Figures lookup 6-1" two.oldstyle
Substitution2: "Tabular Numbers lookup" uniFF12
EndChar

StartChar: three
Encoding: 51 51 5
GlifName: three
Width: 1041
VWidth: 2309
Flags: HMW
LayerCount: 2
Fore
SplineSet
962 400 m 0
 962 140 744 -20 462 -20 c 0
 178 -20 50 123 50 268 c 0
 50 350 100 396 170 396 c 0
 231 396 277 357 277 285 c 0
 277 221 223 180 164 180 c 0
 106 180 52 218 52 268 c 1
 125 268 l 1
 125 148 246 49 422 49 c 0
 660 49 760 212 760 400 c 0
 760 548 704 775 366 775 c 1
 366 820 l 1
 848 820 962 621 962 400 c 0
366 802 m 1
 366 847 l 1
 684 847 700 1054 700 1182 c 0
 700 1330 610 1448 452 1448 c 0
 319 1448 184 1375 184 1245 c 1
 111 1245 l 1
 111 1305 174 1338 225 1338 c 0
 284 1338 338 1302 338 1232 c 0
 338 1152 275 1121 225 1121 c 0
 164 1121 109 1163 109 1245 c 0
 109 1390 278 1518 482 1518 c 0
 705 1518 902 1403 902 1182 c 0
 902 982 828 802 366 802 c 1
EndSplineSet
Substitution2: "'onum' Oldstyle Figures lookup 6-1" three.oldstyle
Substitution2: "Tabular Numbers lookup" uniFF13
EndChar

StartChar: four
Encoding: 52 52 6
GlifName: four
Width: 1189
VWidth: 2309
Flags: HMW
LayerCount: 2
Fore
SplineSet
1100 73 m 1
 1100 0 l 1
 570 0 l 1
 570 73 l 1
 760 73 l 1
 760 1316 l 5
 196 467 l 1
 1170 467 l 1
 1170 394 l 1
 59 394 l 1
 790 1500 l 1
 950 1500 l 1
 950 73 l 1
 1100 73 l 1
EndSplineSet
Substitution2: "'onum' Oldstyle Figures lookup 6-1" four.oldstyle
Substitution2: "Tabular Numbers lookup" uniFF14
Substitution2: "'ss03' Style Set 3 lookup 5-1" four.alt
EndChar

StartChar: five
Encoding: 53 53 7
GlifName: five
Width: 1000
VWidth: 2309
Flags: HMW
LayerCount: 2
Fore
SplineSet
870 1320 m 1
 207 1320 l 1
 207 754 l 1
 134 754 l 1
 134 1500 l 1
 797 1500 l 1
 797 1609 l 1
 870 1609 l 1
 870 1320 l 1
136 258 m 1
 136 168 244 55 412 55 c 0
 670 55 730 272 730 460 c 0
 730 689 638 851 460 851 c 0
 310 851 250 800 221 754 c 1
 154 754 l 1
 186 828 302 939 504 939 c 0
 766 939 939 760 939 460 c 0
 939 200 734 -20 432 -20 c 0
 228 -20 61 113 61 258 c 0
 61 340 113 382 174 382 c 0
 224 382 288 350 288 270 c 0
 288 200 233 160 174 160 c 4
 122 160 63 198 63 258 c 5
 136 258 l 1
EndSplineSet
Substitution2: "'onum' Oldstyle Figures lookup 6-1" five.oldstyle
Substitution2: "Tabular Numbers lookup" uniFF15
EndChar

StartChar: six
Encoding: 54 54 8
GlifName: six
Width: 1119
VWidth: 2309
Flags: HMW
LayerCount: 2
Fore
SplineSet
859 500 m 0
 859 768 756 889 578 889 c 0
 412 889 300 782 300 561 c 1
 238 561 l 1
 238 795 360 980 622 980 c 0
 824 980 1061 840 1061 500 c 0
 1061 200 890 -20 588 -20 c 0
 286 -20 100 200 100 620 c 0
 100 1106 465 1520 910 1520 c 1
 910 1453 l 1
 562 1453 311 1084 311 740 c 1
 300 561 l 1
 300 293 376 53 594 53 c 0
 812 53 859 271 859 500 c 0
EndSplineSet
Substitution2: "Tabular Numbers lookup" uniFF16
EndChar

StartChar: seven
Encoding: 55 55 9
GlifName: seven
Width: 1009
VWidth: 2309
Flags: HMW
LayerCount: 2
Fore
SplineSet
336 152 m 0
 336 310 419 518 530 736 c 0
 608 886 730 1137 812 1311 c 1
 153 1311 l 1
 153 1160 l 1
 80 1160 l 1
 80 1500 l 1
 990 1500 l 1
 990 1500 755 1013 618 736 c 0
 526 548 510 472 510 384 c 0
 510 238 596 208 596 116 c 0
 596 42 556 -20 468 -20 c 0
 390 -20 336 13 336 152 c 0
EndSplineSet
Substitution2: "'onum' Oldstyle Figures lookup 6-1" seven.oldstyle
Substitution2: "Tabular Numbers lookup" uniFF17
EndChar

StartChar: eight
Encoding: 56 56 10
GlifName: eight
Width: 1099
VWidth: 2309
Flags: HMW
LayerCount: 2
Fore
SplineSet
320 1120 m 0
 320 952 372 807 550 807 c 0
 728 807 779 952 779 1120 c 0
 779 1288 728 1447 550 1447 c 0
 372 1447 320 1288 320 1120 c 0
120 1120 m 0
 120 1341 268 1520 550 1520 c 0
 832 1520 980 1341 980 1120 c 0
 980 899 832 760 550 760 c 0
 268 760 120 899 120 1120 c 0
279 380 m 0
 279 192 352 53 550 53 c 0
 748 53 820 192 820 380 c 0
 820 568 748 733 550 733 c 0
 352 733 279 568 279 380 c 0
80 380 m 0
 80 620 228 779 550 779 c 0
 872 779 1020 620 1020 380 c 0
 1020 140 872 -20 550 -20 c 0
 228 -20 80 140 80 380 c 0
EndSplineSet
Substitution2: "Tabular Numbers lookup" uniFF18
EndChar

StartChar: A
Encoding: 65 65 12
GlifName: A_
Width: 1611
Flags: HMW
AnchorPoint: "cedilla" 1266 0 basechar 0
AnchorPoint: "bottom" 746 0 basechar 0
AnchorPoint: "top" 814 1500 basechar 0
LayerCount: 2
Fore
SplineSet
86 73 m 1
 526 73 l 1
 526 0 l 1
 86 0 l 1
 86 73 l 1
945 73 m 1
 1525 73 l 1
 1525 0 l 1
 945 0 l 1
 945 73 l 1
461 526 m 1
 1121 526 l 1
 1121 453 l 1
 461 453 l 1
 461 526 l 1
754 1256 m 1
 318 0 l 1
 234 0 l 1
 776 1529 l 1
 851 1529 l 1
 1381 0 l 1
 1160 0 l 1
 754 1256 l 1
EndSplineSet
EndChar

StartChar: B
Encoding: 66 66 13
GlifName: B_
Width: 1362
Flags: HMW
AnchorPoint: "bottom" 606 0 basechar 0
AnchorPoint: "top" 534 1500 basechar 0
LayerCount: 2
Fore
SplineSet
666 760 m 2
 446 760 l 1
 446 807 l 1
 666 807 l 2
 818 807 967 871 967 1109 c 0
 967 1347 818 1427 666 1427 c 2
 86 1427 l 1
 86 1500 l 1
 666 1500 l 2
 968 1500 1166 1390 1166 1130 c 0
 1166 870 988 760 666 760 c 2
267 1500 m 1
 457 1500 l 1
 457 0 l 1
 267 0 l 1
 267 1500 l 1
707 0 m 2
 86 0 l 1
 86 73 l 1
 687 73 l 2
 859 73 1006 182 1006 420 c 0
 1006 658 859 734 687 734 c 2
 446 734 l 1
 446 779 l 1
 707 779 l 2
 989 779 1227 680 1227 420 c 0
 1227 120 1029 0 707 0 c 2
EndSplineSet
EndChar

StartChar: C
Encoding: 67 67 14
GlifName: C_
Width: 1522
Flags: HMW
AnchorPoint: "cedilla" 826 -0 basechar 0
AnchorPoint: "top" 826 -0 entry 0
AnchorPoint: "bottom" 826 0 basechar 0
AnchorPoint: "top" 816 1500 basechar 0
LayerCount: 2
Fore
SplineSet
1256 1500 m 5
 1320 1500 l 5
 1320 1090 l 5
 1263 1192 1201 1308 1156 1380 c 5
 1256 1500 l 5
1320 1090 m 5
 1246 1090 l 5
 1226 1315 1044 1438 836 1438 c 4
 488 1438 366 1113 366 750 c 4
 366 387 488 62 836 62 c 4
 1084 62 1247 206 1267 410 c 5
 1340 410 l 5
 1340 164 1102 -20 816 -20 c 4
 410 -20 137 305 137 750 c 4
 137 1195 410 1520 816 1520 c 4
 1072 1520 1320 1336 1320 1090 c 5
1340 410 m 5
 1340 0 l 5
 1276 0 l 5
 1176 141 l 5
 1230 225 1280 287 1340 410 c 5
EndSplineSet
EndChar

StartChar: D
Encoding: 68 68 15
GlifName: D_
Width: 1502
Flags: HMW
AnchorPoint: "cedilla" 633 0 basechar 0
AnchorPoint: "bottom" 633 0 basechar 0
AnchorPoint: "top" 634 1500 basechar 0
LayerCount: 2
Fore
SplineSet
267 1500 m 1
 457 1500 l 1
 457 0 l 1
 267 0 l 1
 267 1500 l 1
646 0 m 2
 86 0 l 1
 86 73 l 1
 646 73 l 2
 1014 73 1137 387 1137 750 c 0
 1137 1113 994 1427 646 1427 c 2
 86 1427 l 1
 86 1500 l 1
 646 1500 l 2
 1091 1500 1366 1176 1366 750 c 0
 1366 324 1072 0 646 0 c 2
EndSplineSet
EndChar

StartChar: E
Encoding: 69 69 16
GlifName: E_
Width: 1305
Flags: HMW
AnchorPoint: "cedilla" 956 0 basechar 0
AnchorPoint: "bottom" 646 0 basechar 0
AnchorPoint: "top" 674 1500 basechar 0
LayerCount: 2
Fore
SplineSet
1116 450 m 5
 1189 450 l 5
 1189 0 l 5
 86 0 l 5
 86 73 l 5
 776 73 l 6
 1049 73 1116 196 1116 450 c 5
267 1500 m 5
 457 1500 l 5
 457 0 l 5
 267 0 l 5
 267 1500 l 5
86 1500 m 5
 1170 1500 l 5
 1170 1090 l 5
 1096 1090 l 5
 1096 1304 1031 1427 797 1427 c 6
 86 1427 l 5
 86 1500 l 5
756 557 m 5
 756 691 689 739 576 739 c 6
 416 739 l 5
 416 812 l 5
 576 812 l 6
 689 812 756 852 756 986 c 5
 830 986 l 5
 830 557 l 5
 756 557 l 5
EndSplineSet
EndChar

StartChar: F
Encoding: 70 70 17
GlifName: F_
Width: 1265
Flags: HMW
AnchorPoint: "bottom" 376 0 basechar 0
AnchorPoint: "top" 674 1500 basechar 0
LayerCount: 2
Fore
SplineSet
86 1500 m 1
 1149 1500 l 1
 1149 1090 l 1
 1076 1090 l 1
 1076 1304 1010 1427 776 1427 c 2
 86 1427 l 1
 86 1500 l 1
86 73 m 1
 656 73 l 1
 656 0 l 1
 86 0 l 1
 86 73 l 1
267 1500 m 1
 457 1500 l 1
 457 0 l 1
 267 0 l 1
 267 1500 l 1
776 536 m 1
 776 670 721 710 547 710 c 2
 416 710 l 1
 416 782 l 1
 547 782 l 2
 721 782 776 811 776 945 c 1
 850 945 l 1
 850 536 l 1
 776 536 l 1
EndSplineSet
EndChar

StartChar: G
Encoding: 71 71 18
GlifName: G_
Width: 1532
Flags: HMW
AnchorPoint: "cedilla" 786 0 basechar 0
AnchorPoint: "bottom" 787 0 basechar 0
AnchorPoint: "top" 816 1500 basechar 0
LayerCount: 2
Fore
SplineSet
1320 1090 m 1
 1264 1178 1211 1281 1156 1380 c 1
 1256 1500 l 1
 1320 1500 l 1
 1320 1090 l 1
916 611 m 1
 1457 611 l 1
 1457 529 l 1
 916 529 l 1
 916 611 l 1
1127 561 m 1
 1336 561 l 1
 1336 330 l 1
 1275 204 1113 -20 787 -20 c 0
 371 -20 137 305 137 750 c 0
 137 1195 410 1520 816 1520 c 0
 1072 1520 1320 1336 1320 1090 c 1
 1246 1090 l 1
 1226 1315 1044 1437 836 1437 c 0
 488 1437 366 1113 366 750 c 0
 366 387 449 54 787 54 c 0
 1035 54 1107 206 1127 250 c 1
 1127 561 l 1
EndSplineSet
EndChar

StartChar: H
Encoding: 72 72 19
GlifName: H_
Width: 1572
Flags: HMW
AnchorPoint: "cedilla" 358 0 basechar 0
AnchorPoint: "bottom" 786 0 basechar 0
AnchorPoint: "top" 786 1500 basechar 0
LayerCount: 2
Fore
SplineSet
416 777 m 1
 1156 777 l 1
 1156 703 l 1
 416 703 l 1
 416 777 l 1
916 73 m 1
 1486 73 l 1
 1486 0 l 1
 916 0 l 1
 916 73 l 1
86 73 m 1
 656 73 l 1
 656 0 l 1
 86 0 l 1
 86 73 l 1
916 1500 m 1
 1486 1500 l 1
 1486 1427 l 1
 916 1427 l 1
 916 1500 l 1
86 1500 m 1
 656 1500 l 5
 656 1427 l 1
 86 1427 l 1
 86 1500 l 1
1116 1500 m 1
 1307 1500 l 1
 1307 0 l 1
 1116 0 l 1
 1116 1500 l 1
267 1500 m 1
 457 1500 l 1
 457 0 l 1
 267 0 l 1
 267 1500 l 1
EndSplineSet
EndChar

StartChar: I
Encoding: 73 73 20
GlifName: I_
Width: 822
Flags: HMW
AnchorPoint: "cedilla" 402 0 basechar 0
AnchorPoint: "bottom" 402 0 basechar 0
AnchorPoint: "top" 406 1500 basechar 0
LayerCount: 2
Fore
SplineSet
86 73 m 5
 736 73 l 5
 736 0 l 5
 86 0 l 5
 86 73 l 5
86 1500 m 5
 736 1500 l 5
 736 1427 l 5
 86 1427 l 5
 86 1500 l 5
307 1500 m 5
 496 1500 l 5
 496 0 l 5
 307 0 l 5
 307 1500 l 5
EndSplineSet
EndChar

StartChar: J
Encoding: 74 74 21
GlifName: J_
Width: 954
Flags: HMW
AnchorPoint: "bottom" 308 0 basechar 0
AnchorPoint: "top" 546 1500 basechar 0
LayerCount: 2
Fore
SplineSet
219 1500 m 5
 868 1500 l 5
 868 1427 l 5
 219 1427 l 5
 219 1500 l 5
479 1500 m 5
 668 1500 l 5
 668 340 l 5
 628 199 546 -61 318 -61 c 4
 164 -61 76 55 76 155 c 4
 76 239 129 285 190 285 c 4
 240 285 303 250 303 168 c 4
 303 92 249 58 190 58 c 4
 139 58 78 95 78 155 c 5
 151 155 l 5
 153 84 230 14 309 14 c 4
 452 14 479 101 479 380 c 6
 479 1500 l 5
EndSplineSet
Substitution2: "'ss02' Style Set 2 lookup 4-1" J.alt
EndChar

StartChar: K
Encoding: 75 75 22
GlifName: K_
Width: 1462
Flags: HMW
AnchorPoint: "cedilla" 358 0 basechar 0
AnchorPoint: "bottom" 720 0 basechar 0
AnchorPoint: "top" 706 1500 basechar 0
LayerCount: 2
Fore
SplineSet
86 73 m 5
 656 73 l 5
 656 0 l 5
 86 0 l 5
 86 73 l 5
86 1500 m 5
 656 1500 l 5
 656 1427 l 5
 86 1427 l 5
 86 1500 l 5
267 1500 m 5
 457 1500 l 5
 457 0 l 5
 267 0 l 5
 267 1500 l 5
385 434 m 5
 280 434 l 5
 1068 1496 l 5
 1173 1496 l 5
 385 434 l 5
776 73 m 5
 1396 73 l 5
 1396 0 l 5
 776 0 l 5
 776 73 l 5
1307 1427 m 5
 826 1427 l 5
 826 1500 l 5
 1307 1500 l 5
 1307 1427 l 5
1240 0 m 5
 1000 0 l 5
 564 779 l 5
 692 926 l 5
 1240 0 l 5
EndSplineSet
EndChar

StartChar: L
Encoding: 76 76 23
GlifName: L_
Width: 1275
Flags: HMW
AnchorPoint: "cedilla" 616 0 basechar 0
AnchorPoint: "bottom" 616 0 basechar 0
AnchorPoint: "top" 364 1500 basechar 0
LayerCount: 2
Fore
SplineSet
267 1500 m 1
 457 1500 l 1
 457 0 l 1
 267 0 l 1
 267 1500 l 1
86 1500 m 1
 637 1500 l 1
 637 1427 l 1
 86 1427 l 1
 86 1500 l 1
1180 0 m 1
 86 0 l 1
 86 73 l 1
 767 73 l 2
 1081 73 1106 196 1106 450 c 1
 1180 450 l 1
 1180 0 l 1
EndSplineSet
EndChar

StartChar: M
Encoding: 77 77 24
GlifName: M_
Width: 1833
Flags: HMW
AnchorPoint: "bottom" 876 0 basechar 0
AnchorPoint: "top" 876 1500 basechar 0
LayerCount: 2
Fore
SplineSet
1747 1500 m 1
 1747 1427 l 1
 1607 1427 l 1
 1607 0 l 1
 1417 0 l 1
 1417 1500 l 1
 1747 1500 l 1
96 73 m 1
 453 73 l 1
 453 0 l 1
 96 0 l 1
 96 73 l 1
1257 73 m 1
 1747 73 l 1
 1747 0 l 1
 1257 0 l 1
 1257 73 l 1
934 240 m 1
 1359 1500 l 1
 1438 1500 l 1
 923 -20 l 1
 832 -20 l 1
 275 1500 l 1
 468 1500 l 1
 934 240 l 1
236 1427 m 1
 86 1427 l 1
 86 1500 l 1
 313 1500 l 1
 313 0 l 1
 236 0 l 1
 236 1427 l 1
EndSplineSet
EndChar

StartChar: N
Encoding: 78 78 25
GlifName: N_
Width: 1628
Flags: HMW
AnchorPoint: "bottom" 776 0 basechar 0
AnchorPoint: "top" 856 1500 basechar 0
LayerCount: 2
Fore
SplineSet
1256 1500 m 1
 1332 1500 l 1
 1332 -20 l 1
 1229 -20 l 1
 320 1500 l 1
 550 1500 l 1
 1256 314 l 1
 1256 1500 l 1
1035 1500 m 1
 1543 1500 l 1
 1543 1427 l 1
 1035 1427 l 1
 1035 1500 l 1
86 73 m 1
 604 73 l 1
 604 0 l 1
 86 0 l 1
 86 73 l 1
297 1427 m 1
 86 1427 l 1
 86 1500 l 1
 373 1500 l 1
 373 0 l 1
 297 0 l 1
 297 1427 l 1
EndSplineSet
EndChar

StartChar: O
Encoding: 79 79 26
GlifName: O_
Width: 1552
Flags: HMW
AnchorPoint: "bottom" 776 0 basechar 0
AnchorPoint: "top" 776 1500 basechar 0
LayerCount: 2
Fore
SplineSet
776 -20 m 0
 370 -20 137 324 137 750 c 0
 137 1176 389 1520 776 1520 c 0
 1163 1520 1416 1176 1416 750 c 0
 1416 324 1182 -20 776 -20 c 0
776 1453 m 0
 448 1453 366 1113 366 750 c 0
 366 387 428 47 776 47 c 0
 1124 47 1187 387 1187 750 c 0
 1187 1113 1104 1453 776 1453 c 0
EndSplineSet
EndChar

StartChar: P
Encoding: 80 80 27
GlifName: P_
Width: 1322
Flags: HMW
AnchorPoint: "bottom" 362 0 basechar 0
AnchorPoint: "top" 566 1500 basechar 0
LayerCount: 2
Fore
SplineSet
267 1500 m 1
 457 1500 l 1
 457 0 l 1
 267 0 l 1
 267 1500 l 1
86 73 m 1
 637 73 l 1
 637 0 l 1
 86 0 l 1
 86 73 l 1
676 619 m 2
 416 619 l 1
 416 691 l 1
 676 691 l 2
 867 691 977 881 977 1059 c 0
 977 1237 867 1427 676 1427 c 2
 86 1427 l 1
 86 1500 l 1
 676 1500 l 2
 1037 1500 1196 1319 1196 1059 c 0
 1196 799 1037 619 676 619 c 2
EndSplineSet
EndChar

StartChar: Q
Encoding: 81 81 28
GlifName: Q_
Width: 1552
Flags: HMW
AnchorPoint: "top" 776 1500 basechar 0
LayerCount: 2
Fore
SplineSet
776 -20 m 0
 370 -20 137 324 137 750 c 0
 137 1176 389 1520 776 1520 c 0
 1163 1520 1416 1176 1416 750 c 0
 1416 324 1182 -20 776 -20 c 0
776 1453 m 0
 448 1453 366 1113 366 750 c 0
 366 387 428 47 776 47 c 0
 1124 47 1187 387 1187 750 c 0
 1187 1113 1104 1453 776 1453 c 0
1116 -427 m 5
 1116 -500 l 5
 690 -500 656 -346 656 0 c 5
 732 0 811 0 887 0 c 5
 887 -363 928 -427 1116 -427 c 5
EndSplineSet
EndChar

StartChar: R
Encoding: 82 82 29
GlifName: R_
Width: 1492
Flags: HMW
AnchorPoint: "cedilla" 396 0 basechar 0
AnchorPoint: "bottom" 776 0 basechar 0
AnchorPoint: "top" 686 1500 basechar 0
LayerCount: 2
Fore
SplineSet
746 740 m 2
 446 740 l 1
 446 781 l 1
 746 781 l 2
 937 781 1047 887 1047 1105 c 0
 1047 1323 937 1427 746 1427 c 2
 86 1427 l 1
 86 1500 l 1
 746 1500 l 2
 1048 1500 1246 1365 1246 1105 c 0
 1246 845 1068 740 746 740 c 2
86 73 m 1
 717 73 l 1
 717 0 l 1
 86 0 l 1
 86 73 l 1
307 1500 m 1
 496 1500 l 1
 496 0 l 1
 307 0 l 1
 307 1500 l 1
1416 21 m 1
 1384 3 1308 -10 1236 -10 c 0
 770 -10 1228 709 736 709 c 2
 446 709 l 1
 446 746 l 1
 776 746 l 2
 1422 746 1075 68 1297 68 c 0
 1339 68 1364 78 1391 90 c 1
 1416 21 l 1
EndSplineSet
Substitution2: "'ss01' Style Set 1 lookup 2-1" R.alt
EndChar

StartChar: S
Encoding: 83 83 30
GlifName: S_
Width: 1187
Flags: HMW
AnchorPoint: "cedilla" 635 0 basechar 0
AnchorPoint: "bottom" 638 0 basechar 0
AnchorPoint: "top" 606 1500 basechar 0
LayerCount: 2
Fore
SplineSet
1072 1109 m 1
 1000 1109 l 1
 960 1332 811 1441 623 1441 c 0
 432 1441 335 1349 335 1210 c 0
 335 840 1119 940 1119 400 c 0
 1119 140 942 -29 660 -29 c 0
 363 -29 185 151 137 391 c 1
 209 391 l 1
 249 193 397 47 640 47 c 0
 852 47 975 151 975 330 c 0
 975 740 189 630 189 1150 c 0
 189 1371 368 1520 604 1520 c 0
 840 1520 1032 1377 1072 1109 c 1
1010 1520 m 1
 1072 1520 l 1
 1072 1109 l 1
 1031 1186 976 1284 920 1380 c 1
 1010 1520 l 1
199 -20 m 1
 137 -20 l 1
 137 391 l 1
 195 298 237 213 283 128 c 1
 199 -20 l 1
EndSplineSet
EndChar

StartChar: T
Encoding: 84 84 31
GlifName: T_
Width: 1428
Flags: HMW
AnchorPoint: "cedilla" 716 0 basechar 0
AnchorPoint: "bottom" 715 0 basechar 0
AnchorPoint: "top" 715 1500 basechar 0
LayerCount: 2
Fore
SplineSet
399 73 m 5
 1029 73 l 5
 1029 0 l 5
 399 0 l 5
 399 73 l 5
619 1480 m 5
 810 1480 l 5
 810 0 l 5
 619 0 l 5
 619 1480 l 5
1010 1427 m 6
 420 1427 l 6
 186 1427 160 1304 160 1050 c 5
 86 1050 l 5
 86 1500 l 5
 1343 1500 l 5
 1343 1050 l 5
 1270 1050 l 5
 1270 1304 1244 1427 1010 1427 c 6
EndSplineSet
EndChar

StartChar: U
Encoding: 85 85 32
GlifName: U_
Width: 1508
Flags: HMW
AnchorPoint: "cedilla" 766 0 basechar 0
AnchorPoint: "bottom" 766 0 basechar 0
AnchorPoint: "top" 786 1500 basechar 0
LayerCount: 2
Fore
SplineSet
980 1500 m 1
 1410 1500 l 1
 1410 1427 l 1
 980 1427 l 1
 980 1500 l 1
74 1500 m 1
 645 1500 l 1
 645 1427 l 1
 74 1427 l 1
 74 1500 l 1
1158 1500 m 1
 1230 1500 l 1
 1230 460 l 2
 1230 130 1070 -29 754 -29 c 0
 408 -29 254 114 254 460 c 2
 254 1500 l 1
 444 1500 l 1
 444 480 l 2
 444 216 506 53 794 53 c 0
 1023 53 1158 155 1158 460 c 2
 1158 1500 l 1
EndSplineSet
EndChar

StartChar: V
Encoding: 86 86 33
GlifName: V_
Width: 1620
Flags: HMW
AnchorPoint: "bottom" 802 0 basechar 0
AnchorPoint: "top" 846 1500 basechar 0
LayerCount: 2
Fore
SplineSet
1534 1427 m 1
 1047 1427 l 1
 1047 1500 l 1
 1534 1500 l 1
 1534 1427 l 1
666 1427 m 1
 86 1427 l 1
 86 1500 l 1
 666 1500 l 1
 666 1427 l 1
859 223 m 1
 1303 1500 l 1
 1387 1500 l 1
 844 -29 l 1
 757 -29 l 1
 227 1500 l 1
 447 1500 l 1
 859 223 l 1
EndSplineSet
EndChar

StartChar: W
Encoding: 87 87 34
GlifName: W_
Width: 2077
Flags: HMW
AnchorPoint: "bottom" 1056 0 basechar 0
AnchorPoint: "top" 1096 1500 basechar 0
LayerCount: 2
Fore
SplineSet
1125 941 m 1
 804 -20 l 1
 724 -20 l 1
 252 1500 l 1
 451 1500 l 1
 826 286 l 1
 1063 996 l 1
 1125 941 l 1
1166 941 m 1
 1104 996 l 1
 1271 1500 l 1
 1350 1491 l 1
 1166 941 l 1
2004 1427 m 1
 1621 1427 l 1
 1621 1500 l 1
 2004 1500 l 1
 2004 1427 l 1
1021 1500 m 1
 1395 286 l 1
 1801 1500 l 1
 1879 1491 l 1
 1373 -20 l 1
 1293 -20 l 1
 820 1500 l 1
 1021 1500 l 1
1521 1427 m 1
 73 1427 l 1
 73 1500 l 1
 1521 1500 l 1
 1521 1427 l 1
EndSplineSet
EndChar

StartChar: X
Encoding: 88 88 35
GlifName: X_
Width: 1605
Flags: HMW
AnchorPoint: "bottom" 746 0 basechar 0
AnchorPoint: "top" 826 1500 basechar 0
LayerCount: 2
Fore
SplineSet
815 754 m 5
 723 754 l 5
 1205 1496 l 5
 1288 1496 l 5
 815 754 l 5
276 0 m 5
 188 0 l 5
 750 834 l 5
 838 834 l 5
 276 0 l 5
934 73 m 5
 1518 73 l 5
 1518 0 l 5
 934 0 l 5
 934 73 l 5
64 73 m 5
 529 73 l 5
 529 0 l 5
 64 0 l 5
 64 73 l 5
694 1427 m 5
 135 1427 l 5
 135 1500 l 5
 694 1500 l 5
 694 1427 l 5
1407 1427 m 5
 981 1427 l 5
 981 1500 l 5
 1407 1500 l 5
 1407 1427 l 5
1389 0 m 5
 1149 0 l 5
 254 1500 l 5
 486 1500 l 5
 1389 0 l 5
EndSplineSet
EndChar

StartChar: Y
Encoding: 89 89 36
GlifName: Y_
Width: 1522
Flags: HMW
AnchorPoint: "bottom" 766 0 basechar 0
AnchorPoint: "top" 776 1500 basechar 0
LayerCount: 2
Fore
SplineSet
1434 1427 m 1
 1039 1427 l 1
 1039 1500 l 1
 1434 1500 l 1
 1434 1427 l 1
645 1427 m 1
 64 1427 l 1
 64 1500 l 1
 645 1500 l 1
 645 1427 l 1
494 73 m 1
 1064 73 l 1
 1064 0 l 1
 494 0 l 1
 494 73 l 1
822 829 m 1
 1271 1496 l 1
 1355 1496 l 1
 864 766 l 1
 864 0 l 1
 674 0 l 1
 674 721 l 1
 184 1500 l 1
 404 1500 l 1
 822 829 l 1
EndSplineSet
EndChar

StartChar: Z
Encoding: 90 90 37
GlifName: Z_
Width: 1208
Flags: HMW
AnchorPoint: "bottom" 586 0 basechar 0
AnchorPoint: "top" 556 1500 basechar 0
LayerCount: 2
Fore
SplineSet
118 1500 m 1
 1064 1500 l 1
 1064 1427 l 1
 274 73 l 1
 677 73 l 2
 950 73 996 126 996 380 c 1
 1070 380 l 1
 1070 0 l 1
 64 0 l 1
 64 73 l 1
 854 1427 l 1
 512 1427 l 2
 239 1427 191 1374 191 1160 c 1
 118 1160 l 1
 118 1500 l 1
EndSplineSet
EndChar

StartChar: a
Encoding: 97 97 38
GlifName: a
Width: 1046
VWidth: 2309
Flags: HMW
AnchorPoint: "cedilla" 853 0 basechar 0
AnchorPoint: "bottom" 526 0 basechar 0
AnchorPoint: "top" 506 920 basechar 0
LayerCount: 2
Fore
SplineSet
1006 33 m 1
 970 6 924 -20 848 -20 c 4
 754 -20 684 42 684 160 c 2
 684 609 l 2
 684 753 658 870 498 870 c 0
 404 870 254 839 254 732 c 1
 164 732 l 1
 164 800 218 842 271 842 c 0
 328 842 385 804 385 736 c 0
 385 656 326 622 271 622 c 0
 210 622 162 660 162 732 c 0
 162 856 346 936 528 936 c 0
 803 936 854 771 854 609 c 2
 854 141 l 2
 854 101 860 72 903 72 c 0
 924 72 957 89 971 102 c 1
 1006 33 l 1
540 523 m 2
 777 523 l 1
 777 461 l 1
 540 461 l 2
 364 461 281 355 281 246 c 0
 281 146 338 75 443 75 c 0
 547 75 684 188 684 371 c 1
 724 371 l 1
 724 142 580 -20 377 -20 c 0
 204 -20 92 75 92 227 c 0
 92 405 256 523 540 523 c 2
EndSplineSet
Substitution2: "'smcp' Lowercase to Small Capitals lookup 8-1" a.smcp
Substitution2: "'c2sc' Capitals to Small Capitals lookup 7-1" a.smcp
EndChar

StartChar: b
Encoding: 98 98 39
GlifName: b
Width: 1239
VWidth: 2309
Flags: HMW
AnchorPoint: "bottom" 606 0 basechar 0
AnchorPoint: "top" 736 920 basechar 0
LayerCount: 2
Fore
SplineSet
348 460 m 0
 348 696 506 938 729 938 c 0
 932 938 1128 760 1128 460 c 0
 1128 160 932 -20 729 -20 c 0
 506 -20 348 224 348 460 c 0
402 460 m 0
 402 226 545 73 688 73 c 0
 832 73 928 192 928 460 c 0
 928 728 832 845 688 845 c 0
 545 845 402 694 402 460 c 0
222 1427 m 1
 82 1427 l 1
 82 1500 l 1
 402 1500 l 1
 402 0 l 1
 82 0 l 1
 82 73 l 1
 222 73 l 1
 222 1427 l 1
EndSplineSet
Substitution2: "'smcp' Lowercase to Small Capitals lookup 8-1" b.smcp
Substitution2: "'c2sc' Capitals to Small Capitals lookup 7-1" b.smcp
EndChar

StartChar: c
Encoding: 99 99 40
GlifName: c
Width: 1025
VWidth: 2309
Flags: HMW
AnchorPoint: "cedilla" 556 0 basechar 0
AnchorPoint: "bottom" 556 0 basechar 0
AnchorPoint: "top" 576 920 basechar 0
LayerCount: 2
Fore
SplineSet
831 721 m 1
 831 801 704 865 595 865 c 0
 372 865 322 648 322 460 c 0
 322 231 389 64 582 64 c 0
 727 64 796 135 851 237 c 1
 928 237 l 1
 876 88 770 -20 568 -20 c 0
 306 -20 111 160 111 460 c 0
 111 720 272 940 574 940 c 4
 778 940 906 821 906 721 c 0
 906 649 859 607 798 607 c 0
 748 607 684 639 684 719 c 0
 684 789 737 827 798 827 c 0
 855 827 904 791 904 721 c 1
 831 721 l 1
EndSplineSet
Substitution2: "'smcp' Lowercase to Small Capitals lookup 8-1" c.smcp
Substitution2: "'c2sc' Capitals to Small Capitals lookup 7-1" c.smcp
EndChar

StartChar: d
Encoding: 100 100 41
GlifName: d
Width: 1239
VWidth: 2309
Flags: HMW
AnchorPoint: "cedilla" 976 0 basechar 0
AnchorPoint: "bottom" 656 0 basechar 0
AnchorPoint: "top" 496 920 basechar 0
LayerCount: 2
Fore
SplineSet
892 458 m 0
 892 222 735 -20 512 -20 c 0
 309 -20 111 158 111 458 c 0
 111 758 309 938 512 938 c 0
 735 938 892 694 892 458 c 0
838 458 m 0
 838 692 694 845 551 845 c 0
 407 845 312 726 312 458 c 0
 312 190 407 73 551 73 c 0
 694 73 838 224 838 458 c 0
1158 73 m 1
 1158 0 l 1
 838 0 l 1
 838 1427 l 1
 697 1427 l 1
 697 1500 l 1
 1018 1500 l 1
 1018 73 l 1
 1158 73 l 1
EndSplineSet
Substitution2: "'smcp' Lowercase to Small Capitals lookup 8-1" d.smcp
Substitution2: "'c2sc' Capitals to Small Capitals lookup 7-1" d.smcp
EndChar

StartChar: e
Encoding: 101 101 42
GlifName: e
Width: 1041
VWidth: 2309
Flags: HMW
AnchorPoint: "cedilla" 666 30 basechar 0
AnchorPoint: "bottom" 555 0 basechar 0
AnchorPoint: "top" 535 920 basechar 0
LayerCount: 2
Fore
SplineSet
246 534 m 1
 246 607 l 1
 701 607 l 1
 699 718 693 867 535 867 c 0
 351 867 312 689 312 460 c 0
 312 231 364 59 562 59 c 0
 713 59 805 126 855 237 c 1
 939 237 l 1
 887 88 766 -20 553 -20 c 0
 305 -20 111 160 111 460 c 0
 111 760 283 939 535 939 c 0
 818 939 912 752 912 534 c 1
 246 534 l 1
EndSplineSet
Substitution2: "'smcp' Lowercase to Small Capitals lookup 8-1" e.smcp
Substitution2: "'c2sc' Capitals to Small Capitals lookup 7-1" e.smcp
EndChar

StartChar: f
Encoding: 102 102 43
GlifName: f
Width: 822
VWidth: 2309
Flags: HMW
AnchorPoint: "bottom" 346 0 basechar 0
AnchorPoint: "top" 636 1497 basechar 0
LayerCount: 2
Fore
SplineSet
72 73 m 1
 672 73 l 1
 672 0 l 1
 72 0 l 1
 72 73 l 1
72 920 m 1
 712 920 l 1
 712 847 l 1
 72 847 l 1
 72 920 l 1
817 1322 m 1
 817 1384 746 1447 646 1447 c 0
 486 1447 432 1334 432 1080 c 2
 432 0 l 1
 252 0 l 1
 252 1023 l 2
 252 1285 386 1520 646 1520 c 0
 808 1520 892 1416 892 1322 c 0
 892 1240 838 1198 777 1198 c 0
 727 1198 666 1227 666 1307 c 0
 666 1377 727 1418 777 1418 c 0
 831 1418 890 1382 890 1322 c 1
 817 1322 l 1
EndSplineSet
Substitution2: "'smcp' Lowercase to Small Capitals lookup 8-1" f.smcp
Substitution2: "'c2sc' Capitals to Small Capitals lookup 7-1" f.smcp
EndChar

StartChar: g
Encoding: 103 103 44
GlifName: g
Width: 1217
VWidth: 2309
Flags: HMW
AnchorPoint: "cedilla" 546 -500 basechar 0
AnchorPoint: "bottom" 545 -500 basechar 0
AnchorPoint: "top" 540 920 basechar 0
LayerCount: 2
Fore
SplineSet
146 148 m 0
 146 296 346 387 535 387 c 1
 531 336 l 1
 445 336 287 280 287 212 c 0
 287 143 367 139 476 139 c 0
 546 139 619 141 676 141 c 0
 826 141 1029 107 1029 -164 c 0
 1029 -431 770 -520 536 -520 c 0
 286 -520 82 -439 82 -250 c 0
 82 -68 262 -4 352 -4 c 2
 406 -4 l 1
 316 -39 252 -125 252 -229 c 0
 252 -356 371 -441 572 -441 c 0
 760 -441 906 -367 906 -193 c 0
 906 -86 820 -18 690 -18 c 0
 648 -18 487 -18 443 -18 c 0
 263 -18 146 24 146 148 c 0
312 630 m 0
 312 482 332 393 490 393 c 0
 608 393 668 482 668 630 c 0
 668 778 608 867 490 867 c 0
 372 867 312 778 312 630 c 0
132 630 m 0
 132 851 328 939 490 939 c 0
 652 939 838 851 838 630 c 0
 838 409 652 320 490 320 c 0
 328 320 132 409 132 630 c 0
1075 779 m 1
 1075 819 1039 859 979 859 c 0
 915 859 811 829 771 670 c 1
 719 709 l 1
 759 877 893 930 973 930 c 0
 1071 930 1150 855 1150 779 c 0
 1150 694 1094 669 1044 669 c 0
 994 669 943 704 943 770 c 0
 943 837 996 863 1044 863 c 0
 1093 863 1148 834 1148 779 c 1
 1075 779 l 1
EndSplineSet
Substitution2: "'smcp' Lowercase to Small Capitals lookup 8-1" g.smcp
Substitution2: "'c2sc' Capitals to Small Capitals lookup 7-1" g.smcp
EndChar

StartChar: h
Encoding: 104 104 45
GlifName: h
Width: 1223
VWidth: 2309
Flags: HMW
AnchorPoint: "cedilla" 306 0 basechar 0
AnchorPoint: "bottom" 618 0 basechar 0
AnchorPoint: "top" 735 920 basechar 0
LayerCount: 2
Fore
SplineSet
832 602 m 2
 832 770 816 852 709 852 c 0
 558 852 402 618 402 451 c 1
 357 451 l 1
 357 616 505 939 737 939 c 0
 962 939 1002 813 1002 639 c 2
 1002 0 l 1
 832 0 l 1
 832 602 l 2
691 73 m 1
 1143 73 l 1
 1143 0 l 1
 691 0 l 1
 691 73 l 1
82 73 m 1
 541 73 l 1
 541 0 l 1
 82 0 l 1
 82 73 l 1
222 1427 m 1
 82 1427 l 1
 82 1500 l 1
 402 1500 l 1
 402 0 l 1
 222 0 l 1
 222 1427 l 1
EndSplineSet
Substitution2: "'smcp' Lowercase to Small Capitals lookup 8-1" h.smcp
Substitution2: "'c2sc' Capitals to Small Capitals lookup 7-1" h.smcp
EndChar

StartChar: i
Encoding: 105 105 46
GlifName: i
Width: 643
VWidth: 2309
Flags: HMW
AnchorPoint: "cedilla" 325 0 basechar 0
AnchorPoint: "bottom" 325 0 basechar 0
LayerCount: 2
Fore
SplineSet
92 73 m 1
 552 73 l 1
 552 0 l 1
 92 0 l 1
 92 73 l 1
182 1400 m 0
 182 1466 236 1520 302 1520 c 0
 368 1520 422 1466 422 1400 c 0
 422 1334 368 1279 302 1279 c 0
 236 1279 182 1334 182 1400 c 0
232 847 m 1
 92 847 l 1
 92 920 l 1
 412 920 l 1
 412 0 l 1
 232 0 l 1
 232 847 l 1
EndSplineSet
Substitution2: "'smcp' Lowercase to Small Capitals lookup 8-1" i.smcp
Substitution2: "'c2sc' Capitals to Small Capitals lookup 7-1" i.smcp
EndChar

StartChar: j
Encoding: 106 106 47
GlifName: j
Width: 637
VWidth: 2309
Flags: HMW
AnchorPoint: "bottom" 126 -500 basechar 0
LayerCount: 2
Fore
SplineSet
216 1400 m 0
 216 1466 270 1520 336 1520 c 0
 402 1520 455 1466 455 1400 c 0
 455 1334 402 1279 336 1279 c 0
 270 1279 216 1334 216 1400 c 0
441 920 m 1
 441 -23 l 2
 441 -285 388 -520 128 -520 c 0
 -34 -520 -118 -415 -118 -302 c 0
 -118 -220 -65 -178 -4 -178 c 0
 46 -178 107 -206 107 -286 c 0
 107 -337 67 -395 0 -395 c 0
 -58 -395 -116 -362 -116 -302 c 1
 -43 -302 l 1
 -43 -382 18 -451 117 -451 c 0
 297 -451 262 -214 262 40 c 2
 262 847 l 1
 82 847 l 1
 82 920 l 1
 441 920 l 1
EndSplineSet
Substitution2: "'smcp' Lowercase to Small Capitals lookup 8-1" j.smcp
Substitution2: "'c2sc' Capitals to Small Capitals lookup 7-1" j.smcp
EndChar

StartChar: k
Encoding: 107 107 48
GlifName: k
Width: 1235
VWidth: 2309
Flags: HMW
AnchorPoint: "cedilla" 348 0 basechar 0
AnchorPoint: "bottom" 636 0 basechar 0
AnchorPoint: "top" 796 920 basechar 0
LayerCount: 2
Fore
SplineSet
1098 0 m 1
 887 0 l 1
 435 529 l 1
 930 920 l 1
 1029 920 l 1
 605 578 l 1
 1098 0 l 1
699 73 m 1
 1174 73 l 1
 1174 0 l 1
 699 0 l 1
 699 73 l 1
1105 847 m 1
 660 847 l 1
 660 920 l 1
 1105 920 l 1
 1105 847 l 1
82 73 m 1
 582 73 l 1
 582 0 l 1
 82 0 l 1
 82 73 l 1
262 1427 m 1
 82 1427 l 1
 82 1500 l 1
 441 1500 l 1
 441 0 l 1
 262 0 l 1
 262 1427 l 1
EndSplineSet
Substitution2: "'smcp' Lowercase to Small Capitals lookup 8-1" k.smcp
Substitution2: "'c2sc' Capitals to Small Capitals lookup 7-1" k.smcp
EndChar

StartChar: l
Encoding: 108 108 49
GlifName: l
Width: 703
VWidth: 2309
Flags: HMW
AnchorPoint: "cedilla" 356 0 basechar 0
AnchorPoint: "bottom" 354 0 basechar 0
AnchorPoint: "top" 348 1500 basechar 0
LayerCount: 2
Fore
SplineSet
82 73 m 1
 621 73 l 1
 621 0 l 1
 82 0 l 1
 82 73 l 1
262 1427 m 1
 82 1427 l 1
 82 1500 l 1
 441 1500 l 1
 441 0 l 1
 262 0 l 1
 262 1427 l 1
EndSplineSet
Substitution2: "'smcp' Lowercase to Small Capitals lookup 8-1" l.smcp
Substitution2: "'c2sc' Capitals to Small Capitals lookup 7-1" l.smcp
EndChar

StartChar: m
Encoding: 109 109 50
GlifName: m
Width: 1753
VWidth: 2309
Flags: HMW
AnchorPoint: "bottom" 885 0 basechar 0
AnchorPoint: "top" 946 920 basechar 0
LayerCount: 2
Fore
SplineSet
962 639 m 2
 962 0 l 1
 791 0 l 1
 791 616 l 2
 791 784 772 852 674 852 c 0
 537 852 393 608 393 465 c 1
 354 465 l 1
 354 630 485 939 732 939 c 0
 921 939 962 813 962 639 c 2
82 73 m 1
 531 73 l 1
 531 0 l 1
 82 0 l 1
 82 73 l 1
652 73 m 1
 1102 73 l 1
 1102 0 l 1
 652 0 l 1
 652 73 l 1
1222 73 m 1
 1672 73 l 1
 1672 0 l 1
 1222 0 l 1
 1222 73 l 1
222 847 m 1
 82 847 l 1
 82 920 l 1
 393 920 l 1
 393 0 l 1
 222 0 l 1
 222 847 l 1
1531 639 m 2
 1531 0 l 1
 1361 0 l 1
 1361 616 l 2
 1361 784 1323 852 1225 852 c 0
 1079 852 962 608 962 465 c 1
 917 465 l 1
 917 630 1024 939 1282 939 c 0
 1471 939 1531 813 1531 639 c 2
EndSplineSet
Substitution2: "'smcp' Lowercase to Small Capitals lookup 8-1" m.smcp
Substitution2: "'c2sc' Capitals to Small Capitals lookup 7-1" m.smcp
EndChar

StartChar: n
Encoding: 110 110 51
GlifName: n
Width: 1223
VWidth: 2309
Flags: HMW
AnchorPoint: "cedilla" 306 0 basechar 0
AnchorPoint: "bottom" 596 0 basechar 0
AnchorPoint: "top" 606 920 basechar 0
LayerCount: 2
Fore
SplineSet
832 602 m 2
 832 770 816 852 709 852 c 0
 558 852 393 618 393 451 c 1
 348 451 l 1
 348 616 494 939 742 939 c 0
 971 939 1002 813 1002 639 c 2
 1002 0 l 1
 832 0 l 1
 832 602 l 2
691 73 m 1
 1143 73 l 1
 1143 0 l 1
 691 0 l 1
 691 73 l 1
82 73 m 1
 531 73 l 1
 531 0 l 1
 82 0 l 1
 82 73 l 1
222 847 m 1
 82 847 l 1
 82 920 l 1
 393 920 l 1
 393 0 l 1
 222 0 l 1
 222 847 l 1
EndSplineSet
Substitution2: "'smcp' Lowercase to Small Capitals lookup 8-1" n.smcp
Substitution2: "'c2sc' Capitals to Small Capitals lookup 7-1" n.smcp
EndChar

StartChar: o
Encoding: 111 111 52
GlifName: o
Width: 1139
VWidth: 2309
Flags: HMW
AnchorPoint: "bottom" 566 0 basechar 0
AnchorPoint: "top" 569 920 basechar 0
LayerCount: 2
Fore
SplineSet
312 460 m 0
 312 272 357 53 570 53 c 0
 783 53 828 272 828 460 c 0
 828 648 783 867 570 867 c 0
 357 867 312 648 312 460 c 0
111 460 m 0
 111 720 288 939 570 939 c 0
 852 939 1027 720 1027 460 c 0
 1027 200 852 -20 570 -20 c 0
 288 -20 111 200 111 460 c 0
EndSplineSet
Substitution2: "'smcp' Lowercase to Small Capitals lookup 8-1" o.smcp
Substitution2: "'c2sc' Capitals to Small Capitals lookup 7-1" o.smcp
EndChar

StartChar: p
Encoding: 112 112 53
GlifName: p
Width: 1239
VWidth: 2309
Flags: HMW
AnchorPoint: "bottom" 776 0 basechar 0
AnchorPoint: "top" 706 920 basechar 0
LayerCount: 2
Fore
SplineSet
348 460 m 0
 348 696 506 938 729 938 c 0
 932 938 1128 760 1128 460 c 0
 1128 160 932 -20 729 -20 c 0
 506 -20 348 224 348 460 c 0
402 460 m 0
 402 226 545 73 688 73 c 0
 832 73 928 192 928 460 c 0
 928 728 832 845 688 845 c 0
 545 845 402 694 402 460 c 0
82 -427 m 1
 541 -427 l 1
 541 -500 l 1
 82 -500 l 1
 82 -427 l 1
222 847 m 1
 82 847 l 1
 82 920 l 1
 402 920 l 1
 402 -500 l 1
 222 -500 l 1
 222 847 l 1
EndSplineSet
Substitution2: "'smcp' Lowercase to Small Capitals lookup 8-1" p.smcp
Substitution2: "'c2sc' Capitals to Small Capitals lookup 7-1" p.smcp
EndChar

StartChar: q
Encoding: 113 113 54
GlifName: q
Width: 1239
VWidth: 2309
Flags: HMW
AnchorPoint: "bottom" 456 0 basechar 0
AnchorPoint: "top" 536 920 basechar 0
LayerCount: 2
Fore
SplineSet
892 458 m 0
 892 222 735 -20 512 -20 c 0
 309 -20 111 158 111 458 c 0
 111 758 309 938 512 938 c 0
 735 938 892 694 892 458 c 0
838 458 m 0
 838 692 694 845 551 845 c 0
 407 845 312 726 312 458 c 0
 312 190 407 73 551 73 c 0
 694 73 838 224 838 458 c 0
1158 -427 m 1
 1158 -500 l 1
 697 -500 l 1
 697 -427 l 1
 1158 -427 l 1
1158 920 m 1
 1158 847 l 1
 1018 847 l 1
 1018 -500 l 1
 838 -500 l 1
 838 920 l 1
 1158 920 l 1
EndSplineSet
Substitution2: "'smcp' Lowercase to Small Capitals lookup 8-1" q.smcp
Substitution2: "'c2sc' Capitals to Small Capitals lookup 7-1" q.smcp
EndChar

StartChar: r
Encoding: 114 114 55
GlifName: r
Width: 919
VWidth: 2309
Flags: HMW
AnchorPoint: "cedilla" 316 0 basechar 0
AnchorPoint: "bottom" 316 0 basechar 0
AnchorPoint: "top" 456 920 basechar 0
LayerCount: 2
Fore
SplineSet
750 885 m 0
 807 885 858 853 858 803 c 1
 784 803 l 1
 784 843 728 864 688 864 c 0
 576 864 393 628 393 412 c 1
 352 412 l 1
 352 632 498 939 695 939 c 0
 806 939 860 871 860 803 c 0
 860 735 815 680 749 680 c 0
 683 680 636 721 636 781 c 0
 636 850 693 885 750 885 c 0
82 73 m 1
 557 73 l 1
 557 0 l 1
 82 0 l 1
 82 73 l 1
222 847 m 1
 82 847 l 1
 82 920 l 1
 393 920 l 1
 393 0 l 1
 222 0 l 1
 222 847 l 1
EndSplineSet
Substitution2: "'smcp' Lowercase to Small Capitals lookup 8-1" r.smcp
Substitution2: "'c2sc' Capitals to Small Capitals lookup 7-1" r.smcp
EndChar

StartChar: s
Encoding: 115 115 56
GlifName: s
Width: 869
VWidth: 2309
Flags: HMW
AnchorPoint: "cedilla" 416 0 basechar 0
AnchorPoint: "bottom" 416 0 basechar 0
AnchorPoint: "top" 416 920 basechar 0
LayerCount: 2
Fore
SplineSet
646 746 m 1
 626 775 605 805 572 832 c 1
 656 939 l 1
 720 939 l 1
 720 660 l 1
 646 660 l 1
 648 684 652 707 646 746 c 1
709 660 m 1
 646 660 l 1
 626 765 526 861 383 861 c 0
 307 861 240 811 240 737 c 0
 240 537 752 582 752 270 c 0
 752 92 616 -20 436 -20 c 0
 262 -20 103 128 93 284 c 1
 156 284 l 1
 196 158 292 57 415 57 c 0
 520 57 607 112 607 205 c 0
 607 454 115 357 115 685 c 0
 115 813 192 938 381 938 c 0
 563 938 709 792 709 660 c 1
146 -20 m 1
 82 -20 l 1
 82 284 l 1
 156 284 l 1
 151 253 140 217 156 193 c 1
 201 138 205 124 230 88 c 1
 146 -20 l 1
EndSplineSet
Substitution2: "'smcp' Lowercase to Small Capitals lookup 8-1" s.smcp
Substitution2: "'c2sc' Capitals to Small Capitals lookup 7-1" s.smcp
EndChar

StartChar: t
Encoding: 116 116 57
GlifName: t
Width: 664
VWidth: 2309
Flags: HMW
AnchorPoint: "cedilla" 376 0 basechar 0
AnchorPoint: "bottom" 376 0 basechar 0
AnchorPoint: "top" 276 1130 basechar 0
LayerCount: 2
Fore
SplineSet
62 920 m 1
 577 920 l 1
 577 847 l 1
 62 847 l 1
 62 920 l 1
633 131 m 1
 575 42 522 -14 390 -14 c 0
 226 -14 184 114 184 223 c 2
 184 1120 l 1
 245 1120 323 1151 363 1180 c 1
 363 207 l 2
 363 107 385 82 444 82 c 0
 495 82 541 128 572 172 c 1
 633 131 l 1
EndSplineSet
Substitution2: "'smcp' Lowercase to Small Capitals lookup 8-1" t.smcp
Substitution2: "'c2sc' Capitals to Small Capitals lookup 7-1" t.smcp
EndChar

StartChar: u
Encoding: 117 117 58
GlifName: u
Width: 1233
VWidth: 2309
Flags: HMW
AnchorPoint: "cedilla" 942 0 basechar 0
AnchorPoint: "bottom" 656 0 basechar 0
AnchorPoint: "top" 566 920 basechar 0
LayerCount: 2
Fore
SplineSet
402 920 m 1
 402 318 l 2
 402 150 418 68 525 68 c 0
 677 68 832 302 832 469 c 1
 871 469 l 1
 871 304 753 -20 491 -20 c 0
 258 -20 222 108 222 282 c 2
 222 847 l 1
 82 847 l 1
 82 920 l 1
 402 920 l 1
1012 73 m 1
 1152 73 l 1
 1152 0 l 1
 832 0 l 1
 832 847 l 1
 691 847 l 1
 691 920 l 1
 1012 920 l 1
 1012 73 l 1
EndSplineSet
Substitution2: "'smcp' Lowercase to Small Capitals lookup 8-1" u.smcp
Substitution2: "'c2sc' Capitals to Small Capitals lookup 7-1" u.smcp
EndChar

StartChar: v
Encoding: 118 118 59
GlifName: v
Width: 1063
VWidth: 2309
Flags: HMW
AnchorPoint: "bottom" 546 0 basechar 0
AnchorPoint: "top" 596 920 basechar 0
LayerCount: 2
Fore
SplineSet
1021 848 m 1
 684 848 l 1
 684 920 l 1
 1021 920 l 1
 1021 848 l 1
516 848 m 1
 41 848 l 1
 41 920 l 1
 516 920 l 1
 516 848 l 1
597 206 m 1
 879 920 l 1
 966 920 l 1
 590 -20 l 1
 509 -20 l 1
 123 920 l 1
 322 920 l 1
 597 206 l 1
EndSplineSet
Substitution2: "'smcp' Lowercase to Small Capitals lookup 8-1" v.smcp
Substitution2: "'c2sc' Capitals to Small Capitals lookup 7-1" v.smcp
EndChar

StartChar: w
Encoding: 119 119 60
GlifName: w
Width: 1508
VWidth: 2309
Flags: HMW
AnchorPoint: "bottom" 776 0 basechar 0
AnchorPoint: "top" 776 920 basechar 0
LayerCount: 2
Fore
SplineSet
451 848 m 1
 41 848 l 1
 41 920 l 1
 451 920 l 1
 451 848 l 1
1467 848 m 1
 1127 848 l 1
 1127 920 l 1
 1467 920 l 1
 1467 848 l 1
504 221 m 1
 783 939 l 1
 866 939 l 1
 1084 248 l 1
 1309 920 l 1
 1391 920 l 1
 1076 -20 l 1
 1004 -20 l 1
 773 697 l 1
 492 -20 l 1
 414 -20 l 1
 133 920 l 1
 291 920 l 1
 504 221 l 1
EndSplineSet
Substitution2: "'smcp' Lowercase to Small Capitals lookup 8-1" w.smcp
Substitution2: "'c2sc' Capitals to Small Capitals lookup 7-1" w.smcp
EndChar

StartChar: x
Encoding: 120 120 61
GlifName: x
Width: 1191
VWidth: 2309
Flags: HMW
AnchorPoint: "bottom" 546 0 basechar 0
AnchorPoint: "top" 606 920 basechar 0
LayerCount: 2
Fore
SplineSet
668 72 m 1
 1130 72 l 1
 1130 0 l 1
 668 0 l 1
 668 72 l 1
62 72 m 1
 460 72 l 1
 460 0 l 1
 62 0 l 1
 62 72 l 1
574 848 m 1
 82 848 l 1
 82 920 l 1
 574 920 l 1
 574 848 l 1
1100 848 m 1
 712 848 l 1
 712 920 l 1
 1100 920 l 1
 1100 848 l 1
1039 0 m 1
 830 0 l 1
 191 920 l 1
 402 920 l 1
 1039 0 l 1
218 0 m 1
 127 0 l 1
 924 920 l 1
 1014 920 l 1
 218 0 l 1
EndSplineSet
Substitution2: "'smcp' Lowercase to Small Capitals lookup 8-1" x.smcp
Substitution2: "'c2sc' Capitals to Small Capitals lookup 7-1" x.smcp
EndChar

StartChar: y
Encoding: 121 121 62
GlifName: y
Width: 1082
VWidth: 2309
Flags: HMW
AnchorPoint: "bottom" 306 -500 basechar 0
AnchorPoint: "top" 596 920 basechar 0
LayerCount: 2
Fore
SplineSet
495 848 m 1
 41 848 l 1
 41 920 l 1
 495 920 l 1
 495 848 l 1
1061 848 m 1
 738 848 l 1
 738 920 l 1
 1061 920 l 1
 1061 848 l 1
654 176 m 1
 553 -34 l 1
 102 920 l 1
 301 920 l 1
 654 176 l 1
367 -420 m 1
 336 -396 l 1
 914 920 l 1
 1001 920 l 1
 423 -396 l 2
 387 -478 346 -527 270 -527 c 0
 220 -527 157 -496 157 -420 c 0
 157 -354 204 -309 268 -309 c 0
 328 -309 367 -350 367 -420 c 1
EndSplineSet
Substitution2: "'smcp' Lowercase to Small Capitals lookup 8-1" y.smcp
Substitution2: "'c2sc' Capitals to Small Capitals lookup 7-1" y.smcp
EndChar

StartChar: z
Encoding: 122 122 63
GlifName: z
Width: 939
VWidth: 2309
Flags: HMW
AnchorPoint: "bottom" 486 0 basechar 0
AnchorPoint: "top" 476 920 basechar 0
LayerCount: 2
Fore
SplineSet
457 848 m 2
 228 848 201 778 201 576 c 1
 129 576 l 1
 129 920 l 1
 825 920 l 1
 825 848 l 1
 272 72 l 1
 482 72 l 2
 755 72 785 120 785 368 c 1
 857 368 l 1
 857 0 l 5
 72 0 l 5
 72 72 l 1
 622 848 l 1
 457 848 l 2
EndSplineSet
Substitution2: "'smcp' Lowercase to Small Capitals lookup 8-1" z.smcp
Substitution2: "'c2sc' Capitals to Small Capitals lookup 7-1" z.smcp
EndChar

StartChar: comma
Encoding: 44 44 65
GlifName: comma
Width: 429
Flags: HMW
LayerCount: 2
Fore
SplineSet
80 98 m 0
 80 164 138 216 214 216 c 0
 292 216 354 154 354 28 c 0
 354 -143 256 -312 76 -312 c 1
 76 -238 l 1
 180 -238 279 -142 279 28 c 1
 302 28 l 5
 302 18 264 -20 206 -20 c 0
 120 -20 80 32 80 98 c 0
EndSplineSet
EndChar

StartChar: exclam
Encoding: 33 33 67
GlifName: exclam
Width: 639
Flags: HMW
LayerCount: 2
Fore
SplineSet
436 1318 m 0
 415 966 354 716 354 416 c 1
 281 416 l 1
 281 716 221 966 200 1318 c 0
 200 1332 200 1343 200 1355 c 0
 200 1447 224 1516 318 1516 c 0
 412 1516 438 1447 438 1355 c 0
 438 1343 436 1332 436 1318 c 0
EndSplineSet
Refer: 1 46 N 1 0 0 1 120 0 2
EndChar

StartChar: quotesingle
Encoding: 39 39 70
GlifName: quotesingle
Width: 399
Flags: HMW
LayerCount: 2
Fore
SplineSet
298 1361 m 28
 277 1211 236 1198 236 977 c 5
 164 977 l 5
 164 1198 123 1211 102 1361 c 28
 100 1375 100 1386 100 1398 c 4
 100 1476 141 1520 200 1520 c 4
 259 1520 300 1476 300 1398 c 4
 300 1386 300 1375 298 1361 c 28
EndSplineSet
EndChar

StartChar: question
Encoding: 63 63 75
GlifName: question
Width: 1099
Flags: HMW
LayerCount: 2
Fore
SplineSet
457 708 m 5
 671 770 798 934 798 1120 c 4
 798 1308 750 1449 512 1449 c 4
 334 1449 195 1312 195 1182 c 5
 122 1182 l 5
 122 1242 177 1279 234 1279 c 4
 293 1279 348 1240 348 1170 c 4
 348 1090 284 1059 234 1059 c 4
 173 1059 120 1100 120 1182 c 4
 120 1346 307 1520 532 1520 c 4
 814 1520 1000 1360 1000 1120 c 4
 1000 890 813 690 531 672 c 5
 531 418 l 5
 457 418 l 5
 457 708 l 5
EndSplineSet
Refer: 1 46 N 1 0 0 1 298 0 2
EndChar

StartChar: parenleft
Encoding: 40 40 76
GlifName: parenleft
Width: 723
Flags: HMW
LayerCount: 2
Fore
SplineSet
719 -286 m 1
 686 -340 l 1
 360 -199 130 184 130 650 c 0
 130 1116 360 1459 686 1600 c 1
 719 1547 l 5
 471 1387 320 1034 320 650 c 0
 320 266 471 -126 719 -286 c 1
EndSplineSet
EndChar

StartChar: asterisk
Encoding: 42 42 78
GlifName: asterisk
Width: 1264
VWidth: 0
Flags: HMW
LayerCount: 2
Fore
SplineSet
614 1008 m 0
 805 1118 797 1161 916 1254 c 0
 927 1263 937 1268 947 1274 c 0
 1015 1313 1072 1299 1102 1248 c 0
 1132 1197 1115 1140 1047 1101 c 0
 1037 1095 1027 1089 1014 1084 c 0
 874 1027 841 1056 650 946 c 0
 459 836 467 793 348 700 c 0
 337 691 327 686 317 680 c 0
 249 641 192 655 162 706 c 0
 132 757 149 814 217 853 c 0
 227 859 237 865 250 870 c 0
 390 927 423 898 614 1008 c 0
650 1008 m 0
 841 898 874 927 1014 870 c 0
 1027 865 1037 859 1047 853 c 0
 1115 814 1132 757 1102 706 c 0
 1072 655 1015 641 947 680 c 0
 937 686 927 691 916 700 c 0
 797 793 805 836 614 946 c 0
 423 1056 390 1027 250 1084 c 0
 237 1089 227 1095 217 1101 c 0
 149 1140 132 1197 162 1248 c 0
 192 1299 249 1313 317 1274 c 0
 327 1268 337 1263 348 1254 c 0
 467 1161 459 1118 650 1008 c 0
668 977 m 0
 668 756 709 743 730 593 c 0
 732 579 732 568 732 556 c 0
 732 478 691 434 632 434 c 0
 573 434 532 478 532 556 c 0
 532 568 532 579 534 593 c 0
 555 743 596 756 596 977 c 0
 596 1198 555 1211 534 1361 c 0
 532 1375 532 1386 532 1398 c 0
 532 1476 573 1520 632 1520 c 0
 691 1520 732 1476 732 1398 c 0
 732 1386 732 1375 730 1361 c 0
 709 1211 668 1198 668 977 c 0
EndSplineSet
EndChar

StartChar: at
Encoding: 64 64 79
GlifName: at
Width: 2019
VWidth: 2309
Flags: HMW
LayerCount: 2
Fore
SplineSet
1293 712 m 0
 1293 388 1083 141 868 141 c 0
 710 141 568 252 568 460 c 0
 568 760 798 1059 1036 1059 c 0
 1213 1059 1293 876 1293 712 c 0
1229 691 m 0
 1229 775 1200 973 1068 973 c 0
 920 973 770 728 770 480 c 0
 770 346 800 227 928 227 c 0
 1050 227 1229 435 1229 691 c 0
1180 420 m 2
 1324 1040 l 1
 1504 1040 l 1
 1359 420 l 2
 1342 348 1303 215 1437 215 c 0
 1664 215 1837 493 1837 802 c 0
 1837 1142 1637 1507 1168 1507 c 0
 629 1507 184 1006 184 422 c 0
 184 -152 510 -355 838 -355 c 0
 1156 -355 1343 -277 1523 -82 c 1
 1570 -128 l 1
 1402 -323 1164 -428 838 -428 c 0
 472 -428 109 -204 109 422 c 0
 109 1048 584 1580 1170 1580 c 0
 1676 1580 1910 1168 1910 802 c 0
 1910 482 1724 137 1382 137 c 0
 1204 137 1151 296 1180 420 c 2
EndSplineSet
EndChar

StartChar: dollar
Encoding: 36 36 80
GlifName: dollar
Width: 1109
Flags: HMW
LayerCount: 2
Fore
SplineSet
598 1660 m 1
 672 1660 l 1
 672 -160 l 1
 598 -160 l 1
 598 1660 l 1
418 1660 m 1
 492 1660 l 1
 492 -160 l 1
 418 -160 l 1
 418 1660 l 1
915 1210 m 1
 915 1340 758 1451 580 1451 c 0
 368 1451 260 1368 260 1210 c 0
 260 840 1029 960 1029 420 c 0
 1029 141 852 -29 570 -29 c 0
 238 -29 61 160 61 290 c 0
 61 382 112 454 200 454 c 0
 261 454 328 410 328 322 c 0
 328 242 261 191 193 191 c 0
 128 191 63 220 63 290 c 1
 136 290 l 1
 136 182 281 33 560 33 c 0
 772 33 891 132 891 330 c 0
 891 740 120 610 120 1130 c 0
 120 1370 332 1520 574 1520 c 0
 790 1520 990 1372 990 1210 c 0
 990 1118 938 1046 850 1046 c 0
 789 1046 723 1090 723 1178 c 0
 723 1258 787 1309 855 1309 c 0
 919 1309 988 1250 988 1210 c 1
 915 1210 l 1
EndSplineSet
EndChar

StartChar: numbersign
Encoding: 35 35 81
GlifName: numbersign
Width: 1292
Flags: HMW
LayerCount: 2
Fore
SplineSet
61 547 m 5
 1174 547 l 5
 1174 474 l 1
 61 474 l 1
 61 547 l 5
120 1057 m 1
 1233 1057 l 1
 1233 983 l 1
 120 983 l 1
 120 1057 l 1
900 1508 m 1
 973 1510 l 1
 773 -10 l 1
 700 -12 l 1
 900 1508 l 1
500 1510 m 1
 573 1510 l 1
 373 -10 l 1
 300 -10 l 1
 500 1510 l 1
EndSplineSet
EndChar

StartChar: slash
Encoding: 47 47 82
GlifName: slash
Width: 1072
Flags: HMW
LayerCount: 2
Fore
SplineSet
920 1561 m 5
 993 1561 l 5
 153 -300 l 5
 80 -300 l 5
 920 1561 l 5
EndSplineSet
EndChar

StartChar: percent
Encoding: 37 37 83
GlifName: percent
Width: 2000
Flags: HMW
LayerCount: 2
Fore
SplineSet
1350 420 m 4
 1350 216 1381 53 1529 53 c 4
 1677 53 1710 216 1710 420 c 4
 1710 624 1677 787 1529 787 c 4
 1381 787 1350 624 1350 420 c 4
1130 420 m 4
 1130 706 1302 859 1529 859 c 4
 1756 859 1930 706 1930 420 c 4
 1930 134 1715 -20 1529 -20 c 4
 1302 -20 1130 134 1130 420 c 4
1463 1500 m 5
 1547 1500 l 5
 537 0 l 5
 453 0 l 5
 1463 1500 l 5
290 1080 m 4
 290 876 323 713 471 713 c 4
 619 713 650 876 650 1080 c 4
 650 1284 619 1447 471 1447 c 4
 323 1447 290 1284 290 1080 c 4
70 1080 m 4
 70 1366 244 1520 471 1520 c 4
 698 1520 870 1366 870 1080 c 4
 870 794 657 641 471 641 c 4
 244 641 70 794 70 1080 c 4
EndSplineSet
EndChar

StartChar: hyphen
Encoding: 45 45 85
GlifName: hyphen
Width: 719
Flags: HMW
LayerCount: 2
Fore
SplineSet
120 586 m 5
 600 586 l 5
 600 514 l 5
 120 514 l 5
 120 586 l 5
EndSplineSet
EndChar

StartChar: plus
Encoding: 43 43 87
GlifName: plus
Width: 1059
Flags: HMW
LayerCount: 2
Fore
SplineSet
493 221 m 1
 493 1040 l 1
 566 1040 l 1
 566 221 l 1
 493 221 l 1
120 668 m 1
 939 668 l 1
 939 596 l 5
 120 596 l 5
 120 668 l 1
EndSplineSet
EndChar

StartChar: less
Encoding: 60 60 89
GlifName: less
Width: 1119
Flags: HMW
LayerCount: 2
Fore
SplineSet
120 745 m 1
 120 824 l 1
 1000 1225 l 1
 1000 1146 l 1
 120 745 l 1
120 726 m 5
 120 805 l 1
 1000 404 l 1
 1000 326 l 5
 120 726 l 5
EndSplineSet
EndChar

StartChar: backslash
Encoding: 92 92 91
GlifName: backslash
Width: 1072
Flags: HMW
LayerCount: 2
Fore
SplineSet
163 1561 m 5
 993 -300 l 5
 910 -300 l 1
 80 1561 l 1
 163 1561 l 5
EndSplineSet
EndChar

StartChar: bracketleft
Encoding: 91 91 92
GlifName: bracketleft
Width: 649
Flags: HMW
LayerCount: 2
Fore
SplineSet
590 -300 m 1
 109 -300 l 1
 109 -227 l 5
 590 -227 l 5
 590 -300 l 1
590 1486 m 1
 109 1486 l 1
 109 1561 l 1
 590 1561 l 1
 590 1486 l 1
290 1561 m 1
 290 -300 l 1
 109 -300 l 1
 109 1561 l 1
 290 1561 l 1
EndSplineSet
EndChar

StartChar: braceleft
Encoding: 123 123 93
GlifName: braceleft
Width: 543
VWidth: 2309
Flags: HMW
LayerCount: 2
Fore
SplineSet
484 1561 m 1
 484 1486 l 1
 360 1486 296 1420 296 1294 c 0
 296 1142 363 1061 363 861 c 0
 363 695 257 660 109 620 c 1
 109 666 l 5
 170 686 230 710 230 792 c 0
 230 918 109 1009 109 1282 c 0
 109 1460 194 1561 484 1561 c 1
484 -300 m 1
 194 -300 109 -198 109 -20 c 0
 109 253 230 345 230 471 c 0
 230 553 170 574 109 594 c 1
 109 641 l 1
 257 601 363 566 363 400 c 0
 363 200 296 120 296 -32 c 0
 296 -158 360 -227 484 -227 c 1
 484 -300 l 1
EndSplineSet
EndChar

StartChar: bar
Encoding: 124 124 96
GlifName: bar
Width: 493
VWidth: 2309
Flags: HMW
LayerCount: 2
Fore
SplineSet
210 1561 m 1
 283 1561 l 5
 283 -500 l 5
 210 -500 l 1
 210 1561 l 1
EndSplineSet
EndChar

StartChar: cent
Encoding: 162 162 98
GlifName: cent
Width: 1025
VWidth: 2309
Flags: HMW
LayerCount: 2
Fore
SplineSet
594 1109 m 1
 594 -170 l 1
 520 -170 l 1
 520 1109 l 1
 594 1109 l 1
EndSplineSet
Refer: 40 99 N 1 0 0 1 0 0 2
EndChar

StartChar: sterling
Encoding: 163 163 99
GlifName: sterling
Width: 1250
VWidth: 2309
Flags: HMW
LayerCount: 2
Fore
SplineSet
1204 314 m 1
 1204 24 1041 -61 863 -61 c 0
 590 -61 500 61 374 61 c 0
 292 61 237 21 217 -40 c 1
 179 -40 l 1
 219 108 277 193 443 193 c 0
 643 193 724 126 876 126 c 0
 1002 126 1131 150 1131 314 c 1
 1204 314 l 1
930 811 m 1
 930 736 l 1
 29 736 l 1
 29 811 l 1
 930 811 l 1
236 1100 m 0
 236 1379 446 1520 768 1520 c 0
 1092 1520 1225 1355 1225 1191 c 0
 1225 1109 1166 1068 1105 1068 c 0
 1055 1068 992 1100 992 1180 c 0
 992 1250 1046 1290 1105 1290 c 0
 1163 1290 1223 1251 1223 1191 c 1
 1155 1191 l 1
 1155 1336 1038 1455 809 1455 c 0
 532 1455 458 1268 458 1120 c 0
 458 922 570 791 570 641 c 0
 570 282 192 271 217 -40 c 1
 145 -40 l 1
 107 237 398 393 398 521 c 0
 398 750 236 870 236 1100 c 0
EndSplineSet
EndChar

StartChar: section
Encoding: 167 167 101
GlifName: section
Width: 893
VWidth: 2309
Flags: HMW
LayerCount: 2
Fore
SplineSet
228 1288 m 4
 228 1056 833 1077 833 770 c 4
 833 646 726 580 619 508 c 5
 564 520 l 5
 612 564 681 605 681 666 c 4
 681 928 123 853 123 1216 c 4
 123 1424 303 1520 453 1520 c 4
 629 1520 801 1437 801 1225 c 4
 801 1143 751 1080 681 1080 c 4
 620 1080 573 1119 573 1191 c 4
 573 1255 628 1302 687 1302 c 4
 740 1302 799 1265 799 1225 c 5
 726 1225 l 5
 726 1375 617 1447 453 1447 c 4
 327 1447 228 1382 228 1288 c 4
817 324 m 4
 817 116 657 -20 427 -20 c 4
 251 -20 60 50 60 282 c 4
 60 364 109 426 179 426 c 4
 240 426 287 386 287 314 c 4
 287 250 232 204 173 204 c 4
 119 204 62 232 62 282 c 5
 135 282 l 5
 135 102 282 53 427 53 c 4
 604 53 677 129 677 223 c 4
 677 455 75 424 75 710 c 4
 75 855 193 948 261 1000 c 5
 323 1000 l 5
 315 977 247 914 247 834 c 4
 247 572 817 687 817 324 c 4
EndSplineSet
EndChar

StartChar: asciitilde
Encoding: 126 126 104
GlifName: asciitilde
Width: 1375
VWidth: 2309
Flags: HMW
LayerCount: 2
Fore
SplineSet
459 874 m 0
 354 874 273 831 273 686 c 1
 200 686 l 1
 200 916 340 1020 498 1020 c 0
 719 1020 705 832 896 832 c 0
 1022 832 1104 875 1104 1020 c 1
 1176 1020 l 1
 1176 790 1036 686 878 686 c 0
 624 686 665 874 459 874 c 0
EndSplineSet
EndChar

StartChar: copyright
Encoding: 169 169 105
GlifName: copyright
Width: 1739
Flags: HMW
LayerCount: 2
Fore
SplineSet
100 750 m 0
 100 1176 444 1520 870 1520 c 0
 1296 1520 1641 1176 1641 750 c 0
 1641 324 1296 -20 870 -20 c 0
 444 -20 100 324 100 750 c 0
174 750 m 0
 174 363 483 53 870 53 c 0
 1257 53 1566 363 1566 750 c 0
 1566 1137 1257 1447 870 1447 c 0
 483 1447 174 1137 174 750 c 0
EndSplineSet
Refer: 14 67 N 0.6 0 0 0.6 380 300 2
EndChar

StartChar: registered
Encoding: 174 174 106
GlifName: registered
Width: 1739
Flags: HMW
LayerCount: 2
Fore
SplineSet
100 750 m 0
 100 1176 444 1520 870 1520 c 0
 1296 1520 1641 1176 1641 750 c 0
 1641 324 1296 -20 870 -20 c 0
 444 -20 100 324 100 750 c 0
174 750 m 0
 174 363 483 53 870 53 c 0
 1257 53 1566 363 1566 750 c 0
 1566 1137 1257 1447 870 1447 c 0
 483 1447 174 1137 174 750 c 0
EndSplineSet
Refer: 29 82 N 0.6 0 0 0.6 441 296 2
EndChar

StartChar: logicalnot
Encoding: 172 172 107
GlifName: logicalnot
Width: 971
Flags: HMW
LayerCount: 2
Fore
SplineSet
779 1156 m 5
 120 1156 l 1
 120 1230 l 1
 852 1230 l 1
 852 826 l 1
 779 826 l 5
 779 1156 l 5
EndSplineSet
EndChar

StartChar: guillemotleft
Encoding: 171 171 108
GlifName: guillemotleft
Width: 1389
Flags: HMW
LayerCount: 2
Fore
SplineSet
861 775 m 1
 1307 326 l 5
 1270 290 l 1
 609 750 l 1
 609 800 l 1
 1270 1260 l 1
 1307 1224 l 1
 861 775 l 1
302 775 m 1
 746 326 l 5
 710 290 l 1
 50 750 l 1
 50 800 l 1
 710 1260 l 1
 746 1224 l 1
 302 775 l 1
EndSplineSet
EndChar

StartChar: mu
Encoding: 181 181 111
GlifName: mu
Width: 1233
VWidth: 2309
Flags: HMW
LayerCount: 2
Fore
SplineSet
546 -246 m 0
 612 -246 669 -304 669 -380 c 0
 669 -458 618 -520 502 -520 c 0
 361 -520 222 -422 222 -242 c 2
 222 883 l 1
 294 883 l 1
 294 -242 l 2
 294 -392 398 -455 508 -455 c 1
 508 -517 l 1
 458 -517 423 -438 423 -372 c 0
 423 -306 480 -246 546 -246 c 0
EndSplineSet
Refer: 58 117 N 1 0 0 1 0 0 2
EndChar

StartChar: asciicircum
Encoding: 94 94 113
GlifName: asciicircum
Width: 1089
Flags: HMW
LayerCount: 2
Fore
SplineSet
544 1445 m 1
 242 1219 l 1
 200 1260 l 1
 480 1540 l 1
 609 1540 l 1
 891 1260 l 1
 850 1219 l 5
 544 1445 l 1
EndSplineSet
EndChar

StartChar: degree
Encoding: 176 176 115
GlifName: degree
Width: 639
Flags: HMW
LayerCount: 2
Fore
SplineSet
80 1359 m 0
 80 1491 188 1600 320 1600 c 0
 452 1600 561 1491 561 1359 c 0
 561 1227 452 1120 320 1120 c 0
 188 1120 80 1227 80 1359 c 0
189 1359 m 0
 189 1285 246 1230 320 1230 c 4
 394 1230 450 1285 450 1359 c 0
 450 1433 394 1490 320 1490 c 4
 246 1490 189 1433 189 1359 c 0
EndSplineSet
EndChar

StartChar: onequarter
Encoding: 188 188 119
GlifName: onequarter
Width: 1281
Flags: HMW
LayerCount: 2
Fore
SplineSet
996 1300 m 1
 1068 1300 l 1
 137 -200 l 1
 63 -200 l 1
 996 1300 l 1
EndSplineSet
Refer: 6 52 N 0.6 0 0 0.6 540 -206 2
Refer: 3 49 N 0.6 0 0 0.6 -16 712 2
EndChar

StartChar: onehalf
Encoding: 189 189 120
GlifName: onehalf
Width: 1339
Flags: HMW
LayerCount: 2
Fore
SplineSet
996 1300 m 1
 1068 1300 l 5
 137 -200 l 5
 63 -200 l 1
 996 1300 l 1
EndSplineSet
Refer: 4 50 N 0.6 0 0 0.6 682 -202 2
Refer: 3 49 N 0.6 0 0 0.6 -16 712 2
EndChar

StartChar: threequarters
Encoding: 190 190 121
GlifName: threequarters
Width: 1401
Flags: HMW
LayerCount: 2
Fore
SplineSet
1115 1300 m 1
 1188 1300 l 5
 257 -200 l 5
 184 -200 l 1
 1115 1300 l 1
EndSplineSet
Refer: 5 51 N 0.6 0 0 0.6 10 708 2
Refer: 6 52 N 0.6 0 0 0.6 660 -206 2
EndChar

StartChar: grave
Encoding: 96 96 123
GlifName: grave
Width: 789
Flags: HMW
LayerCount: 2
Fore
SplineSet
180 1439 m 6
 142 1441 109 1472 109 1510 c 4
 109 1548 143 1588 200 1576 c 6
 686 1475 l 5
 666 1410 l 5
 180 1439 l 6
EndSplineSet
EndChar

StartChar: acute
Encoding: 180 180 124
GlifName: acute
Width: 789
Flags: HMW
LayerCount: 2
Fore
SplineSet
609 1439 m 2
 123 1410 l 1
 105 1475 l 1
 590 1576 l 2
 647 1588 680 1548 680 1510 c 0
 680 1472 647 1441 609 1439 c 2
EndSplineSet
EndChar

StartChar: cedilla
Encoding: 184 184 128
GlifName: cedilla
Width: 1099
Flags: HMW
AnchorPoint: "cedilla" 563 0 mark 0
LayerCount: 2
Fore
SplineSet
576 -336 m 0
 576 -254 482 -228 352 -228 c 1
 531 12 l 1
 621 12 l 1
 501 -148 l 1
 646 -154 718 -199 718 -310 c 0
 718 -410 622 -509 380 -509 c 1
 380 -437 l 1
 498 -437 576 -395 576 -336 c 0
EndSplineSet
EndChar

StartChar: divide
Encoding: 247 247 131
GlifName: divide
Width: 1119
Flags: HMW
LayerCount: 2
Fore
SplineSet
100 826 m 5
 1020 826 l 5
 1020 754 l 1
 100 754 l 1
 100 826 l 5
439 420 m 4
 439 486 495 540 561 540 c 4
 627 540 680 486 680 420 c 4
 680 354 627 300 561 300 c 4
 495 300 439 354 439 420 c 4
439 1130 m 4
 439 1196 495 1250 561 1250 c 4
 627 1250 680 1196 680 1130 c 4
 680 1064 627 1010 561 1010 c 4
 495 1010 439 1064 439 1130 c 4
EndSplineSet
EndChar

StartChar: ring
Encoding: 730 730 271
GlifName: ring
Width: 639
VWidth: 0
Flags: HMW
AnchorPoint: "top" 320 1500 mark 0
LayerCount: 2
Fore
SplineSet
141 1859 m 0
 141 1961 218 2040 320 2040 c 0
 422 2040 500 1961 500 1859 c 0
 500 1757 422 1680 320 1680 c 0
 218 1680 141 1757 141 1859 c 0
219 1859 m 0
 219 1790 265 1754 320 1754 c 0
 375 1754 422 1790 422 1859 c 0
 422 1928 375 1967 320 1967 c 0
 265 1967 219 1928 219 1859 c 0
EndSplineSet
EndChar

StartChar: tilde
Encoding: 732 732 272
GlifName: tilde
Width: 895
VWidth: 0
Flags: HMW
AnchorPoint: "top" 444 1500 mark 0
LayerCount: 2
Fore
SplineSet
285 1838 m 0
 219 1838 174 1804 174 1700 c 1
 100 1700 l 1
 100 1870 224 1954 322 1954 c 0
 496 1954 519 1796 611 1796 c 0
 677 1796 723 1830 723 1934 c 1
 796 1934 l 1
 796 1745 712 1680 594 1680 c 0
 426 1680 390 1838 285 1838 c 0
EndSplineSet
EndChar

StartChar: AE
Encoding: 198 198 274
GlifName: A_E_
Width: 2033
Flags: HMW
LayerCount: 2
Fore
SplineSet
1050 1500 m 1
 1121 1500 l 1
 250 0 l 1
 170 0 l 1
 1050 1500 l 1
29 73 m 1
 471 73 l 1
 471 0 l 1
 29 0 l 1
 29 73 l 1
490 526 m 1
 1070 526 l 1
 1070 453 l 1
 490 453 l 1
 490 526 l 1
1050 1500 m 1
 1240 1500 l 1
 1240 0 l 1
 1050 0 l 1
 1050 1500 l 1
1050 1500 m 1
 1953 1500 l 1
 1953 1090 l 1
 1880 1090 l 1
 1880 1304 1814 1427 1580 1427 c 2
 1050 1427 l 1
 1050 1500 l 1
1973 0 m 1
 870 0 l 1
 870 73 l 1
 1561 73 l 2
 1834 73 1900 196 1900 450 c 1
 1973 450 l 1
 1973 0 l 1
1540 557 m 1
 1540 691 1472 739 1359 739 c 2
 1240 739 l 1
 1240 812 l 1
 1359 812 l 2
 1472 812 1540 852 1540 986 c 1
 1613 986 l 1
 1613 557 l 1
 1540 557 l 1
EndSplineSet
EndChar

StartChar: ae
Encoding: 230 230 277
GlifName: ae
Width: 1569
VWidth: 2309
Flags: HMW
LayerCount: 2
Fore
SplineSet
162 732 m 0
 162 856 335 936 517 936 c 0
 777 936 793 771 793 609 c 1
 763 361 l 1
 763 113 645 -20 422 -20 c 0
 264 -20 92 39 92 227 c 0
 92 395 245 539 529 539 c 2
 697 539 l 1
 697 466 l 1
 529 466 l 2
 377 466 295 365 295 256 c 0
 295 122 365 84 461 84 c 0
 561 84 653 159 653 361 c 2
 653 609 l 2
 653 743 637 869 477 869 c 0
 409 869 254 832 254 732 c 1
 164 732 l 1
 164 806 226 842 275 842 c 0
 330 842 383 798 383 736 c 0
 383 656 315 622 265 622 c 0
 204 622 162 660 162 732 c 0
1261 607 m 1
 1259 718 1244 867 1086 867 c 0
 902 867 863 689 863 460 c 0
 863 231 915 59 1113 59 c 0
 1264 59 1366 126 1416 237 c 1
 1500 237 l 1
 1448 88 1317 -20 1104 -20 c 0
 856 -20 702 160 702 460 c 0
 702 760 834 939 1086 939 c 0
 1369 939 1473 752 1473 534 c 1
 787 534 l 1
 787 607 l 1
 1261 607 l 1
EndSplineSet
Substitution2: "'smcp' Lowercase to Small Capitals lookup 8-1" ae.smcp
Substitution2: "'c2sc' Capitals to Small Capitals lookup 7-1" ae.smcp
EndChar

StartChar: perthousand
Encoding: 8240 8240 285
GlifName: perthousand
Width: 2939
Flags: HMW
LayerCount: 2
Fore
SplineSet
2290 420 m 4
 2290 216 2322 53 2470 53 c 4
 2618 53 2650 216 2650 420 c 4
 2650 624 2618 787 2470 787 c 4
 2322 787 2290 624 2290 420 c 4
2070 420 m 4
 2070 706 2243 859 2470 859 c 4
 2697 859 2870 706 2870 420 c 4
 2870 134 2656 -20 2470 -20 c 4
 2243 -20 2070 134 2070 420 c 4
1350 420 m 4
 1350 216 1381 53 1529 53 c 4
 1677 53 1710 216 1710 420 c 4
 1710 624 1677 787 1529 787 c 4
 1381 787 1350 624 1350 420 c 4
1130 420 m 4
 1130 706 1302 859 1529 859 c 4
 1756 859 1930 706 1930 420 c 4
 1930 134 1715 -20 1529 -20 c 4
 1302 -20 1130 134 1130 420 c 4
1463 1500 m 5
 1547 1500 l 5
 537 0 l 5
 453 0 l 5
 1463 1500 l 5
290 1080 m 4
 290 876 323 713 471 713 c 4
 619 713 650 876 650 1080 c 4
 650 1284 619 1447 471 1447 c 4
 323 1447 290 1284 290 1080 c 4
70 1080 m 4
 70 1366 244 1520 471 1520 c 4
 698 1520 870 1366 870 1080 c 4
 870 794 657 641 471 641 c 4
 244 641 70 794 70 1080 c 4
EndSplineSet
EndChar

StartChar: uni2031
Encoding: 8241 8241 286
GlifName: uni2031
Width: 3899
Flags: HMW
LayerCount: 2
Fore
SplineSet
3250 420 m 4
 3250 216 3282 53 3430 53 c 4
 3578 53 3609 216 3609 420 c 4
 3609 624 3578 787 3430 787 c 4
 3282 787 3250 624 3250 420 c 4
3029 420 m 4
 3029 706 3203 859 3430 859 c 4
 3657 859 3830 706 3830 420 c 4
 3830 134 3616 -20 3430 -20 c 4
 3203 -20 3029 134 3029 420 c 4
2290 420 m 0
 2290 216 2322 53 2470 53 c 0
 2618 53 2650 216 2650 420 c 0
 2650 624 2618 787 2470 787 c 0
 2322 787 2290 624 2290 420 c 0
2070 420 m 0
 2070 706 2243 859 2470 859 c 0
 2697 859 2870 706 2870 420 c 0
 2870 134 2656 -20 2470 -20 c 0
 2243 -20 2070 134 2070 420 c 0
1350 420 m 0
 1350 216 1381 53 1529 53 c 0
 1677 53 1710 216 1710 420 c 0
 1710 624 1677 787 1529 787 c 0
 1381 787 1350 624 1350 420 c 0
1130 420 m 0
 1130 706 1302 859 1529 859 c 0
 1756 859 1930 706 1930 420 c 0
 1930 134 1715 -20 1529 -20 c 0
 1302 -20 1130 134 1130 420 c 0
1463 1500 m 1
 1547 1500 l 1
 537 0 l 1
 453 0 l 1
 1463 1500 l 1
290 1080 m 0
 290 876 323 713 471 713 c 0
 619 713 650 876 650 1080 c 0
 650 1284 619 1447 471 1447 c 0
 323 1447 290 1284 290 1080 c 0
70 1080 m 0
 70 1366 244 1520 471 1520 c 0
 698 1520 870 1366 870 1080 c 0
 870 794 657 641 471 641 c 0
 244 641 70 794 70 1080 c 0
EndSplineSet
EndChar

StartChar: uniFB00
Encoding: 64256 64256 290
GlifName: uniF_B_00
Width: 1422
VWidth: 2309
Flags: HMW
LayerCount: 2
Fore
SplineSet
72 73 m 5
 1272 73 l 1
 1272 0 l 1
 72 0 l 5
 72 73 l 5
72 920 m 5
 1312 920 l 1
 1312 847 l 1
 72 847 l 5
 72 920 l 5
907 1212 m 1
 907 1274 831 1347 691 1347 c 0
 511 1347 432 1234 432 980 c 2
 432 0 l 1
 252 0 l 1
 252 923 l 2
 252 1185 411 1420 691 1420 c 0
 873 1420 982 1306 982 1212 c 0
 982 1130 928 1088 867 1088 c 0
 817 1088 756 1117 756 1197 c 0
 756 1267 817 1308 867 1308 c 0
 921 1308 980 1272 980 1212 c 1
 907 1212 l 1
1417 1322 m 1
 1417 1384 1346 1447 1246 1447 c 0
 1086 1447 1032 1334 1032 1080 c 2
 1032 0 l 1
 852 0 l 1
 852 1023 l 2
 852 1285 986 1520 1246 1520 c 0
 1408 1520 1492 1416 1492 1322 c 0
 1492 1240 1438 1198 1377 1198 c 0
 1327 1198 1266 1227 1266 1307 c 0
 1266 1377 1327 1418 1377 1418 c 0
 1431 1418 1490 1382 1490 1322 c 1
 1417 1322 l 1
EndSplineSet
Ligature2: "'liga' Standard Ligatures lookup 0-1" f f
LCarets2: 1 0
EndChar

StartChar: uniFB01
Encoding: 64257 64257 291
GlifName: uniF_B_01
Width: 1241
VWidth: 2309
Flags: HMW
LayerCount: 2
Fore
SplineSet
72 73 m 5
 1150 73 l 5
 1150 0 l 5
 72 0 l 5
 72 73 l 5
947 1322 m 5
 947 1384 826 1447 706 1447 c 4
 526 1447 432 1334 432 1080 c 6
 432 0 l 5
 252 0 l 5
 252 1023 l 6
 252 1285 426 1520 706 1520 c 4
 888 1520 1022 1416 1022 1322 c 4
 1022 1240 968 1198 907 1198 c 4
 857 1198 796 1227 796 1307 c 4
 796 1377 857 1418 907 1418 c 4
 961 1418 1020 1382 1020 1322 c 5
 947 1322 l 5
830 847 m 5
 72 847 l 5
 72 920 l 5
 1010 920 l 5
 1010 0 l 5
 830 0 l 5
 830 847 l 5
EndSplineSet
Ligature2: "'liga' Standard Ligatures lookup 0-1" f i
LCarets2: 1 0
EndChar

StartChar: uniFB02
Encoding: 64258 64258 292
GlifName: uniF_B_02
Width: 1273
VWidth: 2309
Flags: HMW
LayerCount: 2
Fore
SplineSet
72 920 m 5
 712 920 l 5
 712 847 l 5
 72 847 l 5
 72 920 l 5
837 1322 m 5
 837 1384 756 1447 656 1447 c 4
 496 1447 432 1334 432 1080 c 6
 432 0 l 5
 252 0 l 5
 252 1023 l 6
 252 1285 396 1520 656 1520 c 4
 818 1520 912 1416 912 1322 c 4
 912 1240 858 1198 797 1198 c 4
 747 1198 686 1227 686 1307 c 4
 686 1377 747 1418 797 1418 c 4
 851 1418 910 1382 910 1322 c 5
 837 1322 l 5
72 73 m 5
 1191 73 l 5
 1191 0 l 5
 72 0 l 5
 72 73 l 5
832 1460 m 5
 1012 1540 l 5
 1012 0 l 5
 832 0 l 5
 832 1460 l 5
EndSplineSet
Ligature2: "'liga' Standard Ligatures lookup 0-1" f l
LCarets2: 1 0
EndChar

StartChar: uniFB03
Encoding: 64259 64259 293
GlifName: uniF_B_03
Width: 1841
VWidth: 2309
Flags: HMW
LayerCount: 2
Fore
SplineSet
907 1212 m 1
 907 1274 831 1347 691 1347 c 0
 511 1347 432 1234 432 980 c 2
 432 0 l 1
 252 0 l 1
 252 923 l 2
 252 1185 411 1420 691 1420 c 0
 873 1420 982 1306 982 1212 c 0
 982 1130 928 1088 867 1088 c 0
 817 1088 756 1117 756 1197 c 0
 756 1267 817 1308 867 1308 c 0
 921 1308 980 1272 980 1212 c 1
 907 1212 l 1
72 73 m 1
 1750 73 l 1
 1750 0 l 1
 72 0 l 1
 72 73 l 1
1547 1322 m 1
 1547 1384 1426 1447 1306 1447 c 0
 1126 1447 1032 1334 1032 1080 c 2
 1032 0 l 1
 852 0 l 1
 852 1023 l 2
 852 1285 1026 1520 1306 1520 c 0
 1488 1520 1622 1416 1622 1322 c 0
 1622 1240 1568 1198 1507 1198 c 0
 1457 1198 1396 1227 1396 1307 c 0
 1396 1377 1457 1418 1507 1418 c 0
 1561 1418 1620 1382 1620 1322 c 1
 1547 1322 l 1
1430 847 m 1
 72 847 l 5
 72 920 l 5
 1610 920 l 1
 1610 0 l 1
 1430 0 l 1
 1430 847 l 1
EndSplineSet
Ligature2: "'liga' Standard Ligatures lookup 0-1" f f i
LCarets2: 2 0 0
EndChar

StartChar: uniFB04
Encoding: 64260 64260 294
GlifName: uniF_B_04
Width: 1873
VWidth: 2309
Flags: HMW
LayerCount: 2
Fore
SplineSet
907 1212 m 1
 907 1274 831 1347 691 1347 c 0
 511 1347 432 1234 432 980 c 2
 432 0 l 1
 252 0 l 1
 252 923 l 2
 252 1185 411 1420 691 1420 c 0
 873 1420 982 1306 982 1212 c 0
 982 1130 928 1088 867 1088 c 0
 817 1088 756 1117 756 1197 c 0
 756 1267 817 1308 867 1308 c 0
 921 1308 980 1272 980 1212 c 1
 907 1212 l 1
72 920 m 1
 1312 920 l 1
 1312 847 l 1
 72 847 l 1
 72 920 l 1
1437 1322 m 1
 1437 1384 1356 1447 1256 1447 c 0
 1096 1447 1032 1334 1032 1080 c 2
 1032 0 l 1
 852 0 l 1
 852 1023 l 2
 852 1285 996 1520 1256 1520 c 0
 1418 1520 1512 1416 1512 1322 c 0
 1512 1240 1458 1198 1397 1198 c 0
 1347 1198 1286 1227 1286 1307 c 0
 1286 1377 1347 1418 1397 1418 c 0
 1451 1418 1510 1382 1510 1322 c 1
 1437 1322 l 1
72 73 m 1
 1791 73 l 1
 1791 0 l 1
 72 0 l 1
 72 73 l 1
1432 1460 m 1
 1612 1540 l 1
 1612 0 l 1
 1432 0 l 1
 1432 1460 l 1
EndSplineSet
Ligature2: "'liga' Standard Ligatures lookup 0-1" f f l
LCarets2: 2 0 0
EndChar

StartChar: ogonek
Encoding: 731 731 295
GlifName: ogonek
Width: 1099
Flags: HMW
AnchorPoint: "cedilla" 563 47 mark 0
LayerCount: 2
Fore
SplineSet
775 -227 m 1
 746 -284 689 -372 546 -372 c 0
 444 -372 330 -320 330 -200 c 0
 330 -40 485 46 607 86 c 1
 633 47 l 1
 571 13 516 -64 516 -150 c 0
 516 -224 543 -275 611 -275 c 0
 668 -275 707 -237 728 -195 c 1
 775 -227 l 1
EndSplineSet
EndChar

StartChar: dotlessi
Encoding: 305 305 296
GlifName: dotlessi
Width: 643
VWidth: 2309
Flags: HMW
AnchorPoint: "top" 282 920 basechar 0
LayerCount: 2
Fore
SplineSet
92 73 m 1
 552 73 l 1
 552 0 l 1
 92 0 l 1
 92 73 l 1
232 847 m 1
 92 847 l 1
 92 920 l 1
 412 920 l 1
 412 0 l 1
 232 0 l 1
 232 847 l 1
EndSplineSet
EndChar

StartChar: uni0237
Encoding: 567 567 297
GlifName: uni0237
Width: 637
VWidth: 2309
Flags: HMW
LayerCount: 2
Fore
SplineSet
441 920 m 1
 441 -23 l 2
 441 -285 388 -520 128 -520 c 0
 -34 -520 -118 -415 -118 -302 c 0
 -118 -220 -65 -178 -4 -178 c 0
 46 -178 107 -206 107 -286 c 0
 107 -337 67 -395 0 -395 c 0
 -58 -395 -116 -362 -116 -302 c 1
 -43 -302 l 1
 -43 -382 18 -451 117 -451 c 0
 297 -451 262 -214 262 40 c 2
 262 847 l 1
 82 847 l 1
 82 920 l 1
 441 920 l 1
EndSplineSet
EndChar

StartChar: kgreenlandic
Encoding: 312 312 306
GlifName: kgreenlandic
Width: 1235
VWidth: 2309
Flags: HMW
LayerCount: 2
Fore
SplineSet
1098 0 m 1
 887 0 l 1
 435 529 l 1
 930 920 l 1
 1029 920 l 1
 605 578 l 1
 1098 0 l 1
699 73 m 1
 1174 73 l 1
 1174 0 l 1
 699 0 l 1
 699 73 l 1
1105 847 m 1
 660 847 l 1
 660 920 l 1
 1105 920 l 1
 1105 847 l 1
82 73 m 1
 582 73 l 1
 582 0 l 1
 82 0 l 1
 82 73 l 1
262 847 m 1
 82 847 l 1
 82 920 l 1
 441 920 l 1
 441 0 l 1
 262 0 l 1
 262 847 l 1
EndSplineSet
EndChar

StartChar: breve
Encoding: 728 728 307
GlifName: breve
Width: 559
VWidth: 2309
Flags: HMW
AnchorPoint: "top" 279 1500 mark 0
LayerCount: 2
Fore
SplineSet
100 1938 m 1
 100 1840 172 1790 279 1790 c 0
 386 1790 460 1840 460 1938 c 1
 500 1938 l 1
 500 1816 459 1680 279 1680 c 0
 99 1680 61 1816 61 1938 c 1
 100 1938 l 1
EndSplineSet
EndChar

StartChar: thorn
Encoding: 254 254 318
GlifName: thorn
Width: 1239
VWidth: 2309
Flags: HMW
LayerCount: 2
Fore
SplineSet
348 460 m 0
 348 696 506 938 729 938 c 0
 932 938 1128 760 1128 460 c 0
 1128 160 932 -20 729 -20 c 0
 506 -20 348 224 348 460 c 0
402 460 m 0
 402 226 545 73 688 73 c 0
 832 73 928 192 928 460 c 0
 928 728 832 845 688 845 c 0
 545 845 402 694 402 460 c 0
82 -427 m 1
 541 -427 l 1
 541 -500 l 1
 82 -500 l 1
 82 -427 l 1
222 1427 m 1
 82 1427 l 1
 82 1500 l 1
 402 1500 l 1
 402 -500 l 1
 222 -500 l 1
 222 1427 l 1
EndSplineSet
Substitution2: "'smcp' Lowercase to Small Capitals lookup 8-1" thorn.smcp
Substitution2: "'c2sc' Capitals to Small Capitals lookup 7-1" thorn.smcp
EndChar

StartChar: Thorn
Encoding: 222 222 319
GlifName: T_horn
Width: 1209
Flags: HMW
LayerCount: 2
Fore
SplineSet
210 1500 m 1
 400 1500 l 1
 400 0 l 1
 210 0 l 1
 210 1500 l 1
29 73 m 1
 580 73 l 1
 580 0 l 1
 29 0 l 1
 29 73 l 1
29 1500 m 1
 580 1500 l 1
 580 1427 l 1
 29 1427 l 1
 29 1500 l 1
620 359 m 2
 359 359 l 1
 359 434 l 1
 620 434 l 2
 811 434 920 601 920 779 c 0
 920 957 811 1127 620 1127 c 6
 359 1127 l 5
 359 1200 l 1
 620 1200 l 2
 981 1200 1141 1039 1141 779 c 0
 1141 519 981 359 620 359 c 2
EndSplineSet
EndChar

StartChar: Lslash
Encoding: 321 321 324
GlifName: L_slash
Width: 1275
Flags: HMW
LayerCount: 2
Fore
SplineSet
120 721 m 5
 811 1160 l 5
 811 1076 l 5
 120 636 l 5
 120 721 l 5
EndSplineSet
Refer: 23 76 N 1 0 0 1 0 0 2
EndChar

StartChar: lslash
Encoding: 322 322 325
GlifName: lslash
Width: 703
VWidth: 2309
Flags: HMW
LayerCount: 2
Fore
SplineSet
94 800 m 1
 664 1160 l 1
 664 1072 l 5
 94 712 l 5
 94 800 l 1
EndSplineSet
Refer: 49 108 N 1 0 0 1 0 0 2
Substitution2: "'smcp' Lowercase to Small Capitals lookup 8-1" lslash.smcp
Substitution2: "'c2sc' Capitals to Small Capitals lookup 7-1" lslash.smcp
EndChar

StartChar: eth
Encoding: 240 240 329
GlifName: eth
Width: 1119
VWidth: 2309
Flags: HMW
LayerCount: 2
Fore
SplineSet
221 1260 m 1
 1061 1260 l 1
 1061 1187 l 1
 221 1187 l 1
 221 1260 l 1
1020 620 m 0
 1020 200 834 -20 532 -20 c 0
 230 -20 61 200 61 500 c 0
 61 840 296 980 498 980 c 0
 760 980 881 795 881 561 c 1
 820 561 l 1
 820 782 708 889 542 889 c 0
 364 889 260 768 260 500 c 0
 260 271 307 53 525 53 c 0
 743 53 820 293 820 561 c 1
 811 740 l 1
 811 1084 558 1453 210 1453 c 1
 210 1520 l 1
 648 1520 1020 1120 1020 620 c 0
EndSplineSet
Substitution2: "'smcp' Lowercase to Small Capitals lookup 8-1" eth.smcp
Substitution2: "'c2sc' Capitals to Small Capitals lookup 7-1" eth.smcp
EndChar

StartChar: OE
Encoding: 338 338 330
GlifName: O_E_
Width: 1979
Flags: HMW
LayerCount: 2
Fore
SplineSet
779 1427 m 1025,31,-1
311 750 m 0,32,33
 311 387 411 73 779 73 c 1,34,-1
 760 0 l 1,35,36
 354 0 80 305 80 750 c 0,37,38
 80 1195 354 1500 760 1500 c 1,39,-1
 779 1427 l 1,40,41
 411 1427 311 1113 311 750 c 0,32,33
EndSplineSet
Refer: 16 69 N 1 0 0 1 674 0 2
EndChar

StartChar: germandbls
Encoding: 223 223 332
GlifName: germandbls
Width: 1361
VWidth: 2309
Flags: HMW
LayerCount: 2
Fore
SplineSet
686 802 m 1
 686 847 l 1
 944 847 1020 1015 1020 1143 c 0
 1020 1288 954 1453 746 1453 c 0
 478 1453 391 1246 391 962 c 2
 391 0 l 1
 210 0 l 1
 210 982 l 2
 210 1328 420 1520 746 1520 c 0
 1032 1520 1223 1348 1223 1162 c 0
 1223 962 1088 802 686 802 c 1
29 73 m 1
 570 73 l 1
 570 0 l 1
 29 0 l 1
 29 73 l 1
1282 320 m 0
 1282 120 1104 -20 902 -20 c 0
 759 -20 646 87 646 271 c 0
 646 353 700 402 770 402 c 0
 831 402 878 362 878 290 c 0
 878 226 823 180 764 180 c 0
 720 180 650 211 648 271 c 1
 721 271 l 1
 721 121 799 53 893 53 c 0
 1051 53 1080 192 1080 320 c 0
 1080 508 1024 775 686 775 c 1
 686 820 l 1
 1168 820 1282 580 1282 320 c 0
EndSplineSet
Substitution2: "'smcp' Lowercase to Small Capitals lookup 8-1" germandbls.smcp
Substitution2: "'c2sc' Capitals to Small Capitals lookup 7-1" germandbls.smcp
EndChar

StartChar: circumflex
Encoding: 710 710 335
GlifName: circumflex
Width: 769
Flags: HMW
AnchorPoint: "top" 384 1500 mark 0
LayerCount: 2
Fore
SplineSet
384 1849 m 1
 137 1682 l 1
 100 1719 l 1
 320 1939 l 1
 450 1939 l 1
 670 1719 l 1
 633 1682 l 1
 384 1849 l 1
EndSplineSet
EndChar

StartChar: caron
Encoding: 711 711 336
GlifName: caron
Width: 769
Flags: HMW
AnchorPoint: "top" 384 1500 mark 0
LayerCount: 2
Fore
SplineSet
384 1790 m 1
 633 1957 l 1
 670 1921 l 1
 450 1700 l 1
 320 1700 l 1
 100 1921 l 1
 137 1957 l 1
 384 1790 l 1
EndSplineSet
EndChar

StartChar: pi
Encoding: 960 960 337
GlifName: pi
Width: 1161
VWidth: 2309
Flags: HMW
LayerCount: 2
Fore
SplineSet
1092 206 m 1
 1046 65 962 -20 876 -20 c 0
 782 -20 691 28 691 146 c 2
 691 840 l 1
 872 840 l 1
 872 217 l 6
 872 177 897 145 945 145 c 4
 981 145 1007 166 1045 234 c 1
 1092 206 l 1
208 -20 m 0
 126 -20 90 26 90 76 c 0
 90 213 314 164 314 559 c 2
 314 900 l 1
 426 900 l 1
 426 486 l 2
 426 170 345 -20 208 -20 c 0
1052 920 m 1
 1052 740 l 1
 155 740 l 1
 155 590 l 1
 82 590 l 1
 82 920 l 1
 1052 920 l 1
EndSplineSet
EndChar

StartChar: uni1E9E
Encoding: 7838 7838 338
GlifName: uni1E_9E_
Width: 1601
VWidth: 2309
Flags: HMW
LayerCount: 2
Fore
SplineSet
684 271 m 5
 684 151 806 57 982 57 c 4
 1220 57 1311 192 1311 380 c 4
 1311 528 1284 775 846 775 c 5
 846 848 l 5
 1428 848 1521 601 1521 380 c 4
 1521 120 1303 -20 1021 -20 c 4
 737 -20 609 126 609 271 c 4
 609 353 660 402 730 402 c 4
 791 402 838 362 838 290 c 4
 838 226 784 180 725 180 c 4
 664 180 611 221 611 271 c 5
 684 271 l 5
29 73 m 1
 590 73 l 1
 590 0 l 1
 29 0 l 1
 29 73 l 1
1046 820 m 1
 1005 831 913 838 846 848 c 1
 1279 1368 l 1
 1189 1423 1074 1447 926 1447 c 0
 578 1447 410 1205 410 861 c 2
 410 0 l 1
 210 0 l 1
 210 882 l 2
 210 1288 520 1520 926 1520 c 0
 1233 1520 1401 1388 1462 1322 c 1
 1046 820 l 1
EndSplineSet
EndChar

StartChar: uni203D
Encoding: 8253 8253 339
GlifName: uni203D_
Width: 1199
Flags: HMW
LayerCount: 2
Fore
SplineSet
732 968 m 4
 711 777 631 557 631 416 c 5
 558 416 l 5
 558 557 517 777 496 968 c 4
 494 982 494 994 494 1006 c 4
 494 1063 519 1156 613 1156 c 4
 707 1156 734 1063 734 1006 c 4
 734 994 734 982 732 968 c 4
141 1082 m 4
 141 1266 328 1520 652 1520 c 4
 954 1520 1141 1360 1141 1100 c 4
 1141 860 896 670 654 670 c 5
 654 736 l 5
 828 757 958 934 958 1120 c 4
 958 1308 823 1443 605 1443 c 4
 380 1443 216 1232 216 1082 c 5
 143 1082 l 5
 143 1152 208 1180 254 1180 c 4
 313 1180 368 1140 368 1070 c 4
 368 990 304 958 254 958 c 4
 193 958 141 1000 141 1082 c 4
EndSplineSet
Refer: 1 46 S 1 0 0 1 398 0 2
EndChar

StartChar: R.alt
Encoding: 65536 -1 340
GlifName: R_.alt
Width: 1452
Flags: HMW
AnchorPoint: "bottom" 776 0 basechar 0
AnchorPoint: "cedilla" 396 0 basechar 0
AnchorPoint: "top" 686 1500 basechar 0
LayerCount: 2
Fore
SplineSet
746 740 m 2
 446 740 l 1
 446 781 l 1
 746 781 l 2
 937 781 1047 887 1047 1105 c 0
 1047 1323 937 1427 746 1427 c 2
 86 1427 l 1
 86 1500 l 1
 746 1500 l 2
 1048 1500 1246 1365 1246 1105 c 0
 1246 845 1068 740 746 740 c 2
86 73 m 1
 717 73 l 1
 717 0 l 1
 86 0 l 1
 86 73 l 1
307 1500 m 1
 496 1500 l 1
 496 0 l 1
 307 0 l 1
 307 1500 l 1
1377 0 m 1
 1345 0 1308 0 1236 0 c 0
 770 0 1209 709 736 709 c 2
 446 709 l 1
 446 746 l 1
 776 746 l 2
 1462 746 1080 73 1307 73 c 0
 1349 73 1350 73 1377 73 c 1
 1377 0 l 1
EndSplineSet
EndChar

StartChar: J.alt
Encoding: 65537 -1 341
GlifName: J_.alt
Width: 1081
Flags: HMW
LayerCount: 2
Fore
SplineSet
422 1500 m 1
 1052 1500 l 1
 1052 1427 l 1
 422 1427 l 1
 422 1500 l 1
662 1500 m 1
 852 1500 l 1
 852 561 l 17
 852 241 694 -20 392 -20 c 0
 168 -20 40 159 40 300 c 0
 40 424 113 480 193 480 c 0
 263 480 326 444 326 352 c 0
 326 282 261 227 193 227 c 0
 138 227 42 260 42 300 c 1
 115 300 l 1
 115 180 208 53 392 53 c 0
 614 53 662 221 662 500 c 2
 662 1500 l 1
EndSplineSet
EndChar

StartChar: four.alt
Encoding: 65538 -1 342
GlifName: four.alt
Width: 1189
VWidth: 2309
Flags: HMW
LayerCount: 2
Fore
SplineSet
1061 73 m 1
 1061 0 l 1
 529 0 l 1
 529 73 l 1
 1061 73 l 1
910 996 m 1
 910 0 l 1
 721 0 l 1
 721 956 l 1
 782 956 870 976 910 996 c 1
156 427 m 1
 1090 427 l 1
 1090 354 l 1
 29 354 l 1
 308 754 640 1200 680 1500 c 1
 876 1500 l 1
 838 1210 438 816 156 427 c 1
EndSplineSet
EndChar

StartChar: fj.lig
Encoding: 65539 -1 343
GlifName: fj.lig
Width: 1157
VWidth: 2309
Flags: HMW
LayerCount: 2
Fore
SplineSet
72 73 m 1
 672 73 l 1
 672 0 l 1
 72 0 l 1
 72 73 l 1
897 1322 m 1
 897 1384 806 1447 686 1447 c 0
 506 1447 432 1334 432 1080 c 2
 432 0 l 1
 252 0 l 1
 252 1023 l 2
 252 1285 406 1520 686 1520 c 0
 868 1520 972 1416 972 1322 c 0
 972 1240 918 1198 857 1198 c 0
 807 1198 746 1227 746 1307 c 0
 746 1377 807 1418 857 1418 c 0
 911 1418 970 1382 970 1322 c 1
 897 1322 l 1
961 920 m 1
 961 -23 l 2
 961 -285 908 -520 648 -520 c 0
 486 -520 402 -415 402 -302 c 0
 402 -220 455 -178 516 -178 c 0
 566 -178 627 -206 627 -286 c 0
 627 -337 587 -395 520 -395 c 0
 462 -395 404 -362 404 -302 c 1
 477 -302 l 1
 477 -382 538 -451 637 -451 c 0
 817 -451 782 -214 782 40 c 2
 782 847 l 1
 72 847 l 1
 72 920 l 1
 961 920 l 1
EndSplineSet
LCarets2: 1 0
Ligature2: "'liga' Standard Ligatures lookup 0-1" f j
EndChar

StartChar: uni2116
Encoding: 8470 8470 344
GlifName: uni2116
Width: 2250
Flags: HMW
LayerCount: 2
Fore
SplineSet
1688 1141 m 4
 1688 912 1737 800 1855 800 c 4
 1973 800 2023 912 2023 1141 c 4
 2023 1370 1973 1480 1855 1480 c 4
 1737 1480 1688 1370 1688 1141 c 4
1518 1141 m 4
 1518 1381 1653 1520 1855 1520 c 4
 2057 1520 2194 1381 2194 1141 c 4
 2194 901 2057 760 1855 760 c 4
 1653 760 1518 901 1518 1141 c 4
EndSplineSet
Refer: 85 45 S 1 0 0 1 1496 80 2
Refer: 25 78 N 1 0 0 1 0 0 2
EndChar

StartChar: Euro
Encoding: 8364 8364 345
GlifName: E_uro
Width: 1419
Flags: HMW
LayerCount: 2
Fore
SplineSet
1236 1232 m 1
 1236 1327 1116 1445 938 1445 c 0
 600 1445 480 1098 480 750 c 0
 480 361 633 59 891 59 c 0
 1061 59 1179 189 1229 355 c 1
 1307 355 l 1
 1255 162 1108 -20 866 -20 c 0
 564 -20 250 290 250 750 c 0
 250 1170 516 1520 918 1520 c 0
 1162 1520 1311 1336 1311 1232 c 0
 1311 1150 1256 1107 1195 1107 c 0
 1145 1107 1082 1141 1082 1221 c 0
 1082 1291 1136 1330 1195 1330 c 0
 1247 1330 1309 1302 1309 1232 c 1
 1236 1232 l 1
EndSplineSet
Refer: 88 61 N 1 0 0 1 -61 -141 2
EndChar

StartChar: uni2761
Encoding: 10081 10081 352
GlifName: uni2761
Width: 1322
Flags: HW
LayerCount: 2
Fore
SplineSet
686 619 m 2
 325 619 131 750 131 1010 c 0
 131 1270 325 1402 686 1402 c 2
 1174 1402 l 1
 1174 1329 l 1
 715 1329 l 2
 615 1329 521 1246 521 1010 c 0
 521 774 615 691 715 691 c 2
 892 691 l 1
 892 619 l 1
 686 619 l 2
833 1600 m 1
 906 1600 l 1
 906 457 l 2
 906 166 752 -94 475 -94 c 0
 250 -94 123 76 123 217 c 0
 123 365 209 432 301 432 c 0
 383 432 458 371 458 267 c 0
 458 185 381 129 301 129 c 0
 259 129 223 137 209 149 c 1
 250 46 346 -20 475 -20 c 0
 698 -20 833 191 833 451 c 2
 833 1600 l 1
EndSplineSet
EndChar

StartChar: currency
Encoding: 164 164 353
GlifName: currency
Width: 1140
VWidth: 2309
Flags: HW
LayerCount: 2
Fore
SplineSet
262 1025 m 1
 58 1229 l 1
 111 1282 l 1
 315 1078 l 1
 262 1025 l 1
1029 258 m 1
 825 462 l 1
 878 515 l 1
 1082 311 l 1
 1029 258 l 1
825 1078 m 1
 1029 1282 l 1
 1082 1229 l 1
 878 1025 l 1
 825 1078 l 1
58 311 m 1
 262 515 l 1
 315 462 l 1
 111 258 l 1
 58 311 l 1
202 770 m 0
 202 572 338 393 571 393 c 0
 804 393 938 572 938 770 c 0
 938 968 804 1147 571 1147 c 0
 338 1147 202 968 202 770 c 0
112 770 m 0
 112 1020 289 1229 571 1229 c 0
 853 1229 1028 1020 1028 770 c 0
 1028 520 853 310 571 310 c 0
 289 310 112 520 112 770 c 0
EndSplineSet
EndChar

StartChar: paragraph
Encoding: 182 182 354
GlifName: paragraph
Width: 1212
Flags: HW
LayerCount: 2
Fore
SplineSet
946 1500 m 1
 873 1500 l 1
 873 -300 l 1
 946 -300 l 1
 946 1500 l 1
788 1500 m 1
 715 1500 l 1
 715 -300 l 1
 788 -300 l 1
 788 1500 l 1
1126 -227 m 1
 535 -227 l 1
 535 -300 l 1
 1126 -300 l 1
 1126 -227 l 1
596 779 m 2
 756 779 l 1
 756 1427 l 9
 1126 1427 l 1
 1126 1500 l 1
 596 1500 l 2
 315 1500 126 1369 126 1139 c 0
 126 909 315 779 596 779 c 2
EndSplineSet
EndChar

StartChar: gravecomb
Encoding: 768 768 355
GlifName: gravecomb
Width: 0
Flags: HW
AnchorPoint: "top" -178 1500 mark 0
LayerCount: 2
Fore
SplineSet
-380 1817 m 6
 -412 1836 -426 1882 -407 1915 c 4
 -388 1948 -337 1967 -295 1926 c 6
 -83 1719 l 5
 -128 1670 l 5
 -380 1817 l 6
EndSplineSet
EndChar

StartChar: acutecomb
Encoding: 769 769 356
GlifName: acutecomb
Width: 0
Flags: HW
AnchorPoint: "top" -412 1500 mark 0
LayerCount: 2
Fore
SplineSet
-210 1817 m 6
 -462 1670 l 5
 -507 1719 l 5
 -295 1926 l 6
 -253 1967 -202 1948 -183 1915 c 4
 -164 1882 -178 1836 -210 1817 c 6
EndSplineSet
EndChar

StartChar: uni0304
Encoding: 772 772 359
GlifName: uni0304
Width: 0
Flags: HW
AnchorPoint: "top" -418 1500 mark 0
LayerCount: 2
Fore
SplineSet
-658 1772 m 5
 -178 1772 l 5
 -178 1700 l 5
 -658 1700 l 5
 -658 1772 l 5
EndSplineSet
EndChar

StartChar: uni0307
Encoding: 775 775 361
GlifName: uni0307
Width: 0
Flags: HW
LayerCount: 2
Fore
SplineSet
-460 1152 m 0
 -460 1200 -404 1248 -356 1248 c 0
 -302 1248 -260 1192 -260 1144 c 0
 -260 1102 -308 1048 -364 1048 c 0
 -412 1048 -460 1100 -460 1152 c 0
EndSplineSet
EndChar

StartChar: uni0394
Encoding: 916 916 370
GlifName: uni0394
Width: 1267
Flags: HW
LayerCount: 2
Fore
SplineSet
111 73 m 5
 1151 73 l 1
 1151 0 l 1
 111 0 l 5
 111 73 l 5
580 1256 m 1
 144 0 l 1
 60 0 l 1
 602 1529 l 1
 677 1529 l 1
 1207 0 l 1
 986 0 l 1
 580 1256 l 1
EndSplineSet
EndChar

StartChar: uni03A9
Encoding: 937 937 371
GlifName: uni03A_9
Width: 1552
Flags: HW
LayerCount: 2
Fore
SplineSet
260 300 m 1
 260 206 297 163 400 163 c 2
 556 163 l 1
 556 340 l 1
 626 340 l 1
 626 0 l 1
 187 0 l 1
 187 300 l 1
 260 300 l 1
1293 300 m 1
 1366 300 l 1
 1366 0 l 1
 927 0 l 1
 927 349 l 1
 997 349 l 1
 997 163 l 1
 1153 163 l 2
 1256 163 1293 206 1293 300 c 1
626 367 m 1
 626 300 l 1
 400 350 137 574 137 900 c 0
 137 1276 389 1520 776 1520 c 0
 1163 1520 1416 1276 1416 900 c 0
 1416 574 1153 359 927 309 c 1
 927 376 l 1
 1095 446 1187 637 1187 900 c 0
 1187 1213 1104 1453 776 1453 c 0
 448 1453 366 1213 366 900 c 0
 366 637 458 437 626 367 c 1
EndSplineSet
EndChar

StartChar: eng
Encoding: 331 331 375
GlifName: eng
Width: 1223
VWidth: 2309
Flags: HW
LayerCount: 2
Fore
SplineSet
1012 639 m 5
 1011 -23 l 6
 1011 -283 958 -520 698 -520 c 4
 536 -520 452 -415 452 -302 c 4
 452 -220 505 -178 566 -178 c 4
 616 -178 677 -206 677 -286 c 4
 677 -337 637 -395 570 -395 c 4
 512 -395 454 -362 454 -302 c 5
 527 -302 l 5
 527 -382 588 -451 687 -451 c 4
 867 -451 832 -214 832 40 c 6
 832 602 l 5
 1012 639 l 5
222 847 m 1
 82 847 l 1
 82 920 l 1
 393 920 l 1
 393 0 l 1
 222 0 l 1
 222 847 l 1
82 73 m 1
 531 73 l 1
 531 0 l 1
 82 0 l 1
 82 73 l 1
1012 639 m 9
 832 602 l 1
 832 770 816 852 709 852 c 0
 558 852 393 618 393 451 c 1
 348 451 l 1
 348 616 494 939 742 939 c 0
 971 939 1012 813 1012 639 c 9
EndSplineSet
Substitution2: "'smcp' Lowercase to Small Capitals lookup 8-1" eng.smcp
Substitution2: "'c2sc' Capitals to Small Capitals lookup 7-1" eng.smcp
EndChar

StartChar: Eng
Encoding: 330 330 376
GlifName: E_ng
Width: 1553
VWidth: 2309
Flags: HW
LayerCount: 2
Fore
SplineSet
1342 1029 m 1
 1341 -23 l 2
 1341 -283 1268 -520 978 -520 c 4
 786 -520 682 -405 682 -292 c 4
 682 -210 735 -168 796 -168 c 4
 846 -168 907 -196 907 -276 c 4
 907 -327 867 -385 800 -385 c 4
 742 -385 684 -352 684 -292 c 5
 757 -292 l 5
 757 -372 838 -451 967 -451 c 4
 1147 -451 1162 -214 1162 40 c 2
 1162 992 l 1
 1342 1029 l 1
222 1427 m 1
 82 1427 l 1
 82 1500 l 1
 393 1500 l 1
 393 0 l 1
 222 0 l 1
 222 1427 l 1
82 73 m 1
 531 73 l 1
 531 0 l 1
 82 0 l 1
 82 73 l 1
1342 1029 m 1
 1162 992 l 1
 1162 1240 1026 1412 809 1412 c 0
 558 1412 393 1198 393 1031 c 1
 348 1031 l 1
 348 1196 494 1519 842 1519 c 0
 1181 1519 1341 1283 1342 1029 c 1
EndSplineSet
EndChar

StartChar: florin
Encoding: 402 402 384
GlifName: florin
Width: 691
VWidth: 2309
Flags: HW
LayerCount: 2
Fore
SplineSet
63 920 m 1
 704 920 l 1
 704 847 l 1
 63 847 l 1
 63 920 l 1
837 1322 m 1
 837 1392 780 1447 685 1447 c 0
 544 1447 461 1325 434 1080 c 2
 312 -23 l 2
 284 -274 136 -520 -124 -520 c 0
 -286 -520 -350 -406 -350 -322 c 0
 -350 -240 -297 -198 -236 -198 c 0
 -186 -198 -124 -227 -124 -307 c 0
 -124 -377 -183 -418 -232 -418 c 4
 -276 -418 -348 -392 -348 -322 c 1
 -275 -322 l 1
 -275 -402 -209 -447 -124 -447 c 0
 17 -447 102 -325 127 -80 c 2
 240 1023 l 2
 266 1276 425 1520 685 1520 c 0
 847 1520 912 1406 912 1322 c 0
 912 1240 860 1198 799 1198 c 0
 749 1198 684 1227 684 1307 c 0
 684 1377 741 1418 790 1418 c 0
 827 1418 910 1392 910 1322 c 1
 837 1322 l 1
EndSplineSet
EndChar

StartChar: dagger
Encoding: 8224 8224 400
GlifName: dagger
Width: 1186
Flags: HW
LayerCount: 2
Fore
SplineSet
557 -500 m 5
 557 0 557 350 457 500 c 5
 729 500 l 5
 629 350 629 0 629 -500 c 5
 557 -500 l 5
457 500 m 5
 527 600 557 777 557 977 c 5
 629 977 l 5
 629 777 659 600 729 500 c 5
 457 500 l 5
927 878 m 28
 777 899 714 940 593 940 c 5
 593 1012 l 5
 714 1012 777 1053 927 1074 c 28
 941 1076 952 1076 964 1076 c 4
 1042 1076 1086 1035 1086 976 c 4
 1086 917 1042 876 964 876 c 4
 952 876 941 876 927 878 c 28
691 1361 m 28
 670 1211 629 1198 629 977 c 5
 557 977 l 5
 557 1198 516 1211 495 1361 c 28
 493 1375 493 1386 493 1398 c 4
 493 1476 534 1520 593 1520 c 4
 652 1520 693 1476 693 1398 c 4
 693 1386 693 1375 691 1361 c 28
259 1074 m 28
 409 1053 472 1012 593 1012 c 5
 593 940 l 5
 472 940 409 899 259 878 c 28
 245 876 234 876 222 876 c 4
 144 876 100 917 100 976 c 4
 100 1035 144 1076 222 1076 c 4
 234 1076 245 1076 259 1074 c 28
EndSplineSet
EndChar

StartChar: daggerdbl
Encoding: 8225 8225 401
GlifName: daggerdbl
Width: 1186
Flags: HW
LayerCount: 2
Fore
SplineSet
729 500 m 1
 659 400 629 223 629 23 c 1
 557 23 l 1
 557 223 527 400 457 500 c 1
 729 500 l 1
259 122 m 24
 409 101 472 60 593 60 c 1
 593 -12 l 1
 472 -12 409 -53 259 -74 c 24
 245 -76 234 -76 222 -76 c 0
 144 -76 100 -35 100 24 c 0
 100 83 144 124 222 124 c 0
 234 124 245 124 259 122 c 24
495 -361 m 24
 516 -211 557 -198 557 23 c 1
 629 23 l 1
 629 -198 670 -211 691 -361 c 24
 693 -375 693 -386 693 -398 c 0
 693 -476 652 -520 593 -520 c 0
 534 -520 493 -476 493 -398 c 0
 493 -386 493 -375 495 -361 c 24
927 -74 m 24
 777 -53 714 -12 593 -12 c 1
 593 60 l 1
 714 60 777 101 927 122 c 24
 941 124 952 124 964 124 c 0
 1042 124 1086 83 1086 24 c 0
 1086 -35 1042 -76 964 -76 c 0
 952 -76 941 -76 927 -74 c 24
457 500 m 1
 527 600 557 777 557 977 c 1
 629 977 l 1
 629 777 659 600 729 500 c 1
 457 500 l 1
927 878 m 24
 777 899 714 940 593 940 c 1
 593 1012 l 1
 714 1012 777 1053 927 1074 c 24
 941 1076 952 1076 964 1076 c 0
 1042 1076 1086 1035 1086 976 c 0
 1086 917 1042 876 964 876 c 0
 952 876 941 876 927 878 c 24
691 1361 m 24
 670 1211 629 1198 629 977 c 1
 557 977 l 1
 557 1198 516 1211 495 1361 c 24
 493 1375 493 1386 493 1398 c 0
 493 1476 534 1520 593 1520 c 0
 652 1520 693 1476 693 1398 c 0
 693 1386 693 1375 691 1361 c 24
259 1074 m 24
 409 1053 472 1012 593 1012 c 1
 593 940 l 1
 472 940 409 899 259 878 c 24
 245 876 234 876 222 876 c 0
 144 876 100 917 100 976 c 0
 100 1035 144 1076 222 1076 c 0
 234 1076 245 1076 259 1074 c 24
EndSplineSet
EndChar

StartChar: guilsinglleft
Encoding: 8249 8249 402
GlifName: guilsinglleft
Width: 828
Flags: HW
LayerCount: 2
Fore
SplineSet
302 775 m 1
 746 326 l 1
 710 290 l 1
 50 750 l 1
 50 800 l 1
 710 1260 l 1
 746 1224 l 1
 302 775 l 1
EndSplineSet
EndChar

StartChar: guilsinglright
Encoding: 8250 8250 403
GlifName: guilsinglright
Width: 828
Flags: HW
LayerCount: 2
Fore
SplineSet
526 775 m 5
 82 1224 l 5
 118 1260 l 5
 778 800 l 5
 778 750 l 5
 118 290 l 5
 82 326 l 5
 526 775 l 5
EndSplineSet
EndChar

StartChar: partialdiff
Encoding: 8706 8706 405
GlifName: partialdiff
Width: 1119
VWidth: 2309
Flags: HW
LayerCount: 2
Fore
SplineSet
549 1453 m 1
 475 1453 345 1423 345 1316 c 1
 255 1316 l 1
 255 1384 309 1426 362 1426 c 0
 419 1426 476 1388 476 1320 c 0
 476 1240 417 1206 362 1206 c 0
 301 1206 253 1244 253 1316 c 0
 253 1440 416 1521 569 1520 c 1
 549 1453 l 1
260 500 m 0
 260 768 363 889 541 889 c 0
 707 889 819 822 819 601 c 1
 881 601 l 1
 881 835 789 980 527 980 c 0
 325 980 58 840 58 500 c 0
 58 200 229 -20 531 -20 c 0
 833 -20 1019 330 1019 750 c 4
 1019 1236 854 1520 569 1520 c 1
 549 1453 l 1
 807 1453 808 1084 808 900 c 1
 819 601 l 1
 819 333 743 53 525 53 c 0
 307 53 260 271 260 500 c 0
EndSplineSet
EndChar

StartChar: emptyset
Encoding: 8709 8709 408
GlifName: emptyset
Width: 1140
VWidth: 2309
Flags: HW
LayerCount: 2
Fore
SplineSet
58 311 m 1
 1029 1282 l 1
 1082 1229 l 1
 111 258 l 1
 58 311 l 1
202 770 m 0
 202 572 338 393 571 393 c 0
 804 393 938 572 938 770 c 0
 938 968 804 1147 571 1147 c 0
 338 1147 202 968 202 770 c 0
112 770 m 0
 112 1020 289 1229 571 1229 c 0
 853 1229 1028 1020 1028 770 c 0
 1028 520 853 310 571 310 c 0
 289 310 112 520 112 770 c 0
EndSplineSet
EndChar

StartChar: product
Encoding: 8719 8719 410
GlifName: product
Width: 1572
Flags: HW
LayerCount: 2
Fore
SplineSet
916 73 m 1
 1486 73 l 1
 1486 0 l 1
 916 0 l 1
 916 73 l 1
86 73 m 1
 656 73 l 1
 656 0 l 1
 86 0 l 1
 86 73 l 1
86 1500 m 1
 1486 1500 l 1
 1486 1427 l 1
 86 1427 l 1
 86 1500 l 1
1116 1500 m 1
 1307 1500 l 1
 1307 0 l 1
 1116 0 l 1
 1116 1500 l 1
267 1500 m 1
 457 1500 l 1
 457 0 l 1
 267 0 l 1
 267 1500 l 1
EndSplineSet
EndChar

StartChar: radical
Encoding: 8730 8730 411
GlifName: radical
Width: 1130
Flags: HW
LayerCount: 2
Fore
SplineSet
966 1428 m 5
 617 -20 l 5
 539 -20 l 1
 253 441 l 1
 141 383 l 1
 111 450 l 1
 342 580 l 1
 586 160 l 1
 909 1500 l 1
 1130 1500 l 1
 1130 1428 l 1
 966 1428 l 5
EndSplineSet
EndChar

StartChar: summation
Encoding: 8721 8721 412
GlifName: summation
Width: 1305
Flags: HW
LayerCount: 2
Fore
SplineSet
86 1500 m 1
 1170 1500 l 1
 1170 1090 l 1
 1096 1090 l 1
 1096 1304 1031 1427 797 1427 c 2
 296 1427 l 1
 692 843 l 5
 192 73 l 1
 776 73 l 2
 1049 73 1116 196 1116 450 c 1
 1189 450 l 1
 1189 0 l 1
 56 0 l 1
 538 750 l 1
 86 1427 l 1
 86 1500 l 1
EndSplineSet
EndChar

StartChar: integral
Encoding: 8747 8747 413
GlifName: integral
Width: 1082
VWidth: 2309
Flags: HW
LayerCount: 2
Fore
SplineSet
977 1352 m 1
 977 1392 890 1447 825 1447 c 0
 704 1447 663 1326 654 1080 c 2
 612 -23 l 2
 602 -275 486 -520 256 -520 c 0
 114 -520 30 -436 30 -352 c 0
 30 -270 83 -228 144 -228 c 0
 194 -228 256 -257 256 -337 c 0
 256 -407 197 -448 148 -448 c 0
 104 -448 32 -422 32 -352 c 1
 105 -352 l 1
 105 -412 191 -447 256 -447 c 0
 367 -447 420 -325 427 -80 c 2
 460 1023 l 2
 468 1276 585 1520 825 1520 c 0
 957 1520 1052 1436 1052 1352 c 0
 1052 1270 1000 1228 939 1228 c 0
 889 1228 824 1257 824 1337 c 0
 824 1407 881 1448 930 1448 c 0
 967 1448 1050 1422 1050 1352 c 1
 977 1352 l 1
EndSplineSet
EndChar

StartChar: infinity
Encoding: 8734 8734 414
GlifName: infinity
Width: 1813
VWidth: 2309
Flags: HW
LayerCount: 2
Fore
SplineSet
956 560 m 0
 822 380 681 181 449 181 c 0
 177 181 70 370 70 560 c 1
 271 560 l 1
 271 442 296 253 469 253 c 0
 612 253 755 423 857 560 c 0
 993 742 1132 939 1364 939 c 0
 1636 939 1743 750 1743 560 c 1
 1542 560 l 1
 1542 678 1517 867 1344 867 c 0
 1201 867 1059 698 956 560 c 0
857 560 m 0
 754 698 612 867 469 867 c 0
 296 867 271 678 271 560 c 1
 70 560 l 1
 70 750 177 939 449 939 c 0
 681 939 820 742 956 560 c 0
 1058 423 1201 253 1344 253 c 0
 1517 253 1542 442 1542 560 c 1
 1743 560 l 1
 1743 370 1636 181 1364 181 c 0
 1132 181 991 380 857 560 c 0
EndSplineSet
EndChar

StartChar: approxequal
Encoding: 8776 8776 415
GlifName: approxequal
Width: 1200
VWidth: 0
Flags: HW
LayerCount: 2
Fore
SplineSet
798 744 m 256
 936 744 1048 886 1012 1036 c 257
 929 1036 l 257
 961 916 910 827 788 827 c 256
 728 827 685 860 635 918 c 256
 582 979 504 1054 388 1054 c 256
 216 1054 96 902 136 762 c 257
 219 762 l 257
 191 880 250 971 388 971 c 256
 448 971 505 941 557 880 c 256
 611 816 690 744 798 744 c 256
798 244 m 256
 936 244 1048 386 1012 536 c 257
 929 536 l 257
 961 416 910 327 788 327 c 256
 728 327 685 360 635 418 c 256
 582 479 504 554 388 554 c 256
 216 554 96 402 136 262 c 257
 219 262 l 257
 191 380 250 471 388 471 c 256
 448 471 505 441 557 380 c 256
 611 316 690 244 798 244 c 256
EndSplineSet
EndChar

StartChar: lozenge
Encoding: 9674 9674 419
GlifName: lozenge
Width: 1200
VWidth: 0
Flags: HW
LayerCount: 2
Fore
SplineSet
612 30 m 257
 1000 712 l 257
 612 1392 l 257
 200 712 l 257
 612 30 l 257
612 200 m 261
 300 712 l 257
 612 1222 l 257
 908 712 l 257
 612 200 l 261
EndSplineSet
EndChar

StartChar: longs
Encoding: 383 383 430
GlifName: longs
Width: 822
VWidth: 2309
Flags: HW
AnchorPoint: "top" 636 1497 basechar 0
AnchorPoint: "bottom" 346 0 basechar 0
LayerCount: 2
Fore
SplineSet
72 73 m 1
 672 73 l 1
 672 0 l 1
 72 0 l 1
 72 73 l 1
817 1322 m 1
 817 1384 746 1447 646 1447 c 0
 486 1447 432 1334 432 1080 c 2
 432 0 l 1
 252 0 l 1
 252 1023 l 2
 252 1285 386 1520 646 1520 c 0
 808 1520 892 1416 892 1322 c 0
 892 1240 838 1198 777 1198 c 0
 727 1198 666 1227 666 1307 c 0
 666 1377 727 1418 777 1418 c 0
 831 1418 890 1382 890 1322 c 1
 817 1322 l 1
EndSplineSet
EndChar

StartChar: uniFB05
Encoding: 64261 64261 431
GlifName: uniF_B_05
Width: 1400
VWidth: 2309
Flags: HW
LayerCount: 2
Fore
SplineSet
72 73 m 5
 672 73 l 5
 672 0 l 5
 72 0 l 5
 72 73 l 5
798 920 m 5
 1313 920 l 5
 1313 847 l 5
 798 847 l 5
 798 920 l 5
1369 131 m 5
 1311 42 1258 -14 1126 -14 c 4
 962 -14 920 114 920 223 c 6
 920 1080 l 6
 920 1334 866 1447 676 1447 c 4
 486 1447 432 1334 432 1080 c 6
 432 0 l 5
 252 0 l 5
 252 1023 l 6
 252 1285 386 1520 676 1520 c 4
 966 1520 1100 1285 1100 1023 c 6
 1099 207 l 6
 1099 107 1121 82 1180 82 c 4
 1231 82 1277 128 1308 172 c 5
 1369 131 l 5
EndSplineSet
Ligature2: "'liga' Standard Ligatures lookup 0-1" longs t
EndChar

StartChar: a.smcp
Encoding: 65540 -1 432
GlifName: a.smcp
Width: 1199
Flags: HW
AnchorPoint: "top" 638 1010 basechar 0
AnchorPoint: "bottom" 570 0 basechar 0
AnchorPoint: "cedilla" 1020 0 basechar 0
LayerCount: 2
Fore
SplineSet
0 73 m 1
 360 73 l 1
 360 0 l 1
 0 0 l 1
 0 73 l 1
699 73 m 1
 1199 73 l 1
 1199 0 l 1
 699 0 l 1
 699 73 l 1
295 366 m 1
 915 366 l 1
 915 293 l 1
 295 293 l 1
 295 366 l 1
539 814 m 5
 182 0 l 1
 98 0 l 1
 570 1039 l 5
 645 1039 l 5
 1105 0 l 1
 884 0 l 1
 539 814 l 5
EndSplineSet
EndChar

StartChar: b.smcp
Encoding: 65541 -1 433
GlifName: b.smcp
Width: 1146
Flags: HW
AnchorPoint: "top" 533 1020 basechar 0
AnchorPoint: "bottom" 605 0 basechar 0
LayerCount: 2
Fore
SplineSet
575 540 m 6
 425 540 l 5
 425 587 l 5
 575 587 l 6
 697 587 796 631 796 769 c 4
 796 907 697 947 575 947 c 6
 85 947 l 1
 85 1020 l 1
 575 1020 l 6
 847 1020 995 950 995 790 c 4
 995 630 867 540 575 540 c 6
246 1020 m 5
 436 1020 l 5
 436 0 l 5
 246 0 l 5
 246 1020 l 5
646 0 m 6
 85 0 l 1
 85 73 l 1
 626 73 l 6
 758 73 835 162 835 300 c 4
 835 438 758 514 626 514 c 6
 425 514 l 5
 425 559 l 5
 646 559 l 6
 888 559 1056 480 1056 300 c 4
 1056 100 928 0 646 0 c 6
EndSplineSet
EndChar

StartChar: c.smcp
Encoding: 65542 -1 434
GlifName: c.smcp
Width: 1138
Flags: HW
AnchorPoint: "top" 629 1020 basechar 0
AnchorPoint: "bottom" 639 0 basechar 0
AnchorPoint: "top" 639 0 entry 0
AnchorPoint: "cedilla" 639 0 basechar 0
LayerCount: 2
Fore
SplineSet
939 1020 m 1
 1003 1020 l 1
 1003 690 l 1
 946 792 924 828 879 900 c 1
 939 1020 l 1
1003 690 m 1
 929 690 l 1
 909 835 777 958 639 958 c 0
 451 958 329 823 329 510 c 0
 329 197 461 62 649 62 c 0
 797 62 920 206 940 330 c 1
 1013 330 l 1
 1013 164 805 -20 619 -20 c 0
 383 -20 100 115 100 510 c 0
 100 905 393 1040 609 1040 c 0
 825 1040 1003 836 1003 690 c 1
1013 330 m 1
 1013 0 l 1
 949 0 l 1
 889 141 l 1
 943 225 953 207 1013 330 c 1
EndSplineSet
EndChar

StartChar: d.smcp
Encoding: 65543 -1 435
GlifName: d.smcp
Width: 1235
Flags: HW
AnchorPoint: "top" 563 1020 basechar 0
AnchorPoint: "bottom" 522 0 basechar 0
AnchorPoint: "cedilla" 522 0 basechar 0
LayerCount: 2
Fore
SplineSet
246 1020 m 5
 436 1020 l 5
 436 0 l 5
 246 0 l 5
 246 1020 l 5
595 0 m 6
 85 0 l 5
 85 73 l 5
 595 73 l 6
 803 73 896 217 896 510 c 4
 896 793 803 947 595 947 c 6
 85 947 l 5
 85 1020 l 5
 595 1020 l 6
 910 1020 1125 856 1125 510 c 4
 1125 154 871 0 595 0 c 6
EndSplineSet
EndChar

StartChar: e.smcp
Encoding: 65544 -1 436
GlifName: e.smcp
Width: 1078
Flags: HW
AnchorPoint: "top" 623 1020 basechar 0
AnchorPoint: "bottom" 595 0 basechar 0
AnchorPoint: "cedilla" 845 0 basechar 0
LayerCount: 2
Fore
SplineSet
895 350 m 1
 968 350 l 1
 968 0 l 1
 85 0 l 1
 85 73 l 1
 635 73 l 6
 808 73 895 96 895 350 c 1
216 1020 m 1
 406 1020 l 1
 406 0 l 1
 216 0 l 1
 216 1020 l 1
85 1020 m 1
 959 1020 l 1
 959 710 l 1
 885 710 l 1
 885 924 800 947 666 947 c 2
 85 947 l 1
 85 1020 l 1
625 377 m 1
 625 481 558 509 475 509 c 2
 365 509 l 1
 365 582 l 1
 475 582 l 2
 558 582 625 602 625 706 c 1
 699 706 l 1
 699 377 l 1
 625 377 l 1
EndSplineSet
EndChar

StartChar: f.smcp
Encoding: 65545 -1 437
GlifName: f.smcp
Width: 998
Flags: HW
AnchorPoint: "top" 613 1020 basechar 0
AnchorPoint: "bottom" 325 0 basechar 0
LayerCount: 2
Fore
SplineSet
85 1020 m 1
 938 1020 l 1
 938 710 l 1
 865 710 l 1
 865 894 789 947 625 947 c 2
 85 947 l 1
 85 1020 l 1
85 73 m 1
 555 73 l 1
 555 0 l 1
 85 0 l 1
 85 73 l 1
216 1020 m 1
 406 1020 l 1
 406 0 l 1
 216 0 l 1
 216 1020 l 1
645 346 m 5
 645 430 610 470 486 470 c 6
 375 470 l 5
 375 542 l 5
 486 542 l 6
 610 542 645 571 645 655 c 5
 719 655 l 5
 719 346 l 5
 645 346 l 5
EndSplineSet
EndChar

StartChar: g.smcp
Encoding: 65546 -1 438
GlifName: g.smcp
Width: 1215
Flags: HW
AnchorPoint: "top" 619 1020 basechar 0
AnchorPoint: "bottom" 630 0 basechar 0
AnchorPoint: "cedilla" 629 0 basechar 0
LayerCount: 2
Fore
SplineSet
1013 690 m 1
 957 778 904 801 849 900 c 1
 949 1020 l 1
 1013 1020 l 1
 1013 690 l 1
649 471 m 1
 1150 471 l 1
 1150 389 l 1
 649 389 l 1
 649 471 l 1
840 421 m 1
 1049 421 l 1
 1049 260 l 1
 988 134 866 -20 630 -20 c 0
 394 -20 110 115 110 510 c 0
 110 905 403 1040 619 1040 c 0
 835 1040 1013 836 1013 690 c 1
 939 690 l 1
 919 835 787 957 649 957 c 0
 461 957 339 823 339 510 c 0
 339 197 473 58 640 58 c 0
 778 58 820 136 840 180 c 1
 840 421 l 1
EndSplineSet
EndChar

StartChar: h.smcp
Encoding: 65547 -1 439
GlifName: h.smcp
Width: 1330
Flags: HW
AnchorPoint: "top" 665 1020 basechar 0
AnchorPoint: "bottom" 665 0 basechar 0
AnchorPoint: "cedilla" 307 0 basechar 0
LayerCount: 2
Fore
SplineSet
365 567 m 1
 965 567 l 1
 965 493 l 1
 365 493 l 1
 365 567 l 1
775 73 m 1
 1245 73 l 1
 1245 0 l 1
 775 0 l 1
 775 73 l 1
85 73 m 1
 555 73 l 1
 555 0 l 1
 85 0 l 1
 85 73 l 1
775 1020 m 1
 1245 1020 l 1
 1245 947 l 1
 775 947 l 1
 775 1020 l 1
85 1020 m 1
 555 1020 l 1
 555 947 l 1
 85 947 l 1
 85 1020 l 1
925 1020 m 1
 1116 1020 l 1
 1116 0 l 1
 925 0 l 1
 925 1020 l 1
216 1020 m 1
 406 1020 l 1
 406 0 l 1
 216 0 l 1
 216 1020 l 1
EndSplineSet
EndChar

StartChar: i.smcp
Encoding: 65548 -1 440
GlifName: i.smcp
Width: 720
Flags: HW
AnchorPoint: "top" 355 1020 basechar 0
AnchorPoint: "bottom" 351 0 basechar 0
AnchorPoint: "cedilla" 351 0 basechar 0
LayerCount: 2
Fore
SplineSet
85 73 m 1
 635 73 l 1
 635 0 l 1
 85 0 l 1
 85 73 l 1
85 1020 m 1
 635 1020 l 1
 635 947 l 1
 85 947 l 1
 85 1020 l 1
256 1020 m 1
 445 1020 l 1
 445 0 l 1
 256 0 l 1
 256 1020 l 1
EndSplineSet
EndChar

StartChar: j.smcp
Encoding: 65549 -1 441
GlifName: j.smcp
Width: 857
Flags: HW
LayerCount: 2
Fore
SplineSet
212 1020 m 1
 792 1020 l 1
 792 947 l 1
 212 947 l 1
 212 1020 l 1
452 1020 m 1
 642 1020 l 1
 642 311 l 21
 592 180 494 -20 272 -20 c 0
 108 -20 0 79 0 220 c 0
 0 314 68 380 148 380 c 0
 218 380 286 344 286 252 c 0
 286 182 221 127 153 127 c 0
 98 127 2 180 2 220 c 1
 75 220 l 1
 75 120 148 53 272 53 c 0
 434 53 452 221 452 500 c 2
 452 1020 l 1
EndSplineSet
EndChar

StartChar: k.smcp
Encoding: 65550 -1 442
GlifName: k.smcp
Width: 1205
Flags: HW
AnchorPoint: "top" 655 1020 basechar 0
AnchorPoint: "bottom" 627 0 basechar 0
AnchorPoint: "cedilla" 307 0 basechar 0
LayerCount: 2
Fore
SplineSet
85 73 m 1
 555 73 l 1
 555 0 l 1
 85 0 l 1
 85 73 l 1
85 1020 m 1
 555 1020 l 1
 555 947 l 1
 85 947 l 1
 85 1020 l 1
216 1020 m 1
 406 1020 l 1
 406 0 l 1
 216 0 l 1
 216 1020 l 1
334 244 m 1
 229 244 l 1
 957 1016 l 5
 1062 1016 l 5
 334 244 l 1
685 73 m 1
 1185 73 l 1
 1185 0 l 1
 685 0 l 1
 685 73 l 1
1146 947 m 5
 765 947 l 5
 765 1020 l 5
 1146 1020 l 5
 1146 947 l 5
1099 0 m 1
 859 0 l 1
 543 559 l 1
 671 706 l 1
 1099 0 l 1
EndSplineSet
EndChar

StartChar: l.smcp
Encoding: 65551 -1 443
GlifName: l.smcp
Width: 999
Flags: HW
AnchorPoint: "top" 313 1020 basechar 0
AnchorPoint: "bottom" 565 0 basechar 0
AnchorPoint: "cedilla" 565 0 basechar 0
LayerCount: 2
Fore
SplineSet
216 1020 m 1
 406 1020 l 1
 406 0 l 1
 216 0 l 1
 216 1020 l 1
85 1020 m 5
 536 1020 l 1
 536 947 l 1
 85 947 l 5
 85 1020 l 5
979 0 m 1
 85 0 l 5
 85 73 l 5
 566 73 l 2
 880 73 905 156 905 350 c 1
 979 350 l 1
 979 0 l 1
EndSplineSet
EndChar

StartChar: m.smcp
Encoding: 65552 -1 444
GlifName: m.smcp
Width: 1531
Flags: HW
AnchorPoint: "top" 725 1020 basechar 0
AnchorPoint: "bottom" 725 0 basechar 0
LayerCount: 2
Fore
SplineSet
1446 1020 m 1
 1446 947 l 1
 1356 947 l 1
 1356 0 l 1
 1166 0 l 1
 1166 1020 l 1
 1446 1020 l 1
95 73 m 1
 352 73 l 1
 352 0 l 1
 95 0 l 1
 95 73 l 1
1056 73 m 1
 1446 73 l 1
 1446 0 l 1
 1056 0 l 1
 1056 73 l 1
783 210 m 5
 1108 1020 l 1
 1187 1020 l 1
 772 -20 l 1
 681 -20 l 1
 224 1020 l 1
 417 1020 l 1
 783 210 l 5
185 947 m 1
 85 947 l 1
 85 1020 l 1
 262 1020 l 1
 262 0 l 1
 185 0 l 1
 185 947 l 1
EndSplineSet
EndChar

StartChar: n.smcp
Encoding: 65553 -1 445
GlifName: n.smcp
Width: 1312
Flags: HW
AnchorPoint: "top" 705 1020 basechar 0
AnchorPoint: "bottom" 625 0 basechar 0
LayerCount: 2
Fore
SplineSet
1005 1020 m 1
 1081 1020 l 1
 1081 -20 l 1
 978 -20 l 1
 269 1020 l 1
 499 1020 l 1
 1005 314 l 1
 1005 1020 l 1
834 1020 m 1
 1242 1020 l 1
 1242 947 l 1
 834 947 l 1
 834 1020 l 1
85 73 m 1
 453 73 l 1
 453 0 l 1
 85 0 l 1
 85 73 l 1
246 947 m 1
 85 947 l 1
 85 1020 l 1
 322 1020 l 1
 322 0 l 1
 246 0 l 1
 246 947 l 1
EndSplineSet
EndChar

StartChar: o.smcp
Encoding: 65554 -1 446
GlifName: o.smcp
Width: 1239
Flags: HW
AnchorPoint: "top" 619 1020 basechar 0
AnchorPoint: "bottom" 619 0 basechar 0
LayerCount: 2
Fore
SplineSet
619 -20 m 4
 313 -20 80 184 80 510 c 4
 80 836 332 1040 619 1040 c 4
 906 1040 1159 836 1159 510 c 4
 1159 184 925 -20 619 -20 c 4
619 973 m 4
 421 973 309 773 309 510 c 4
 309 247 401 47 619 47 c 4
 837 47 930 247 930 510 c 4
 930 773 817 973 619 973 c 4
EndSplineSet
EndChar

StartChar: p.smcp
Encoding: 65555 -1 447
GlifName: p.smcp
Width: 1085
Flags: HW
AnchorPoint: "top" 515 1020 basechar 0
AnchorPoint: "bottom" 311 0 basechar 0
LayerCount: 2
Fore
SplineSet
216 1020 m 1
 406 1020 l 1
 406 0 l 1
 216 0 l 1
 216 1020 l 1
85 73 m 1
 536 73 l 1
 536 0 l 1
 85 0 l 1
 85 73 l 1
575 389 m 6
 365 389 l 5
 365 461 l 5
 575 461 l 6
 736 461 806 576 806 704 c 4
 806 832 736 947 575 947 c 6
 85 947 l 5
 85 1020 l 5
 575 1020 l 6
 876 1020 1025 914 1025 704 c 4
 1025 494 876 389 575 389 c 6
EndSplineSet
EndChar

StartChar: q.smcp
Encoding: 65556 -1 448
GlifName: q.smcp
Width: 1279
Flags: HW
AnchorPoint: "top" 639 1020 basechar 0
LayerCount: 2
Fore
SplineSet
966 -427 m 1
 966 -500 l 1
 540 -500 506 -346 506 0 c 1
 582 0 661 0 737 0 c 1
 737 -363 778 -427 966 -427 c 1
639 -20 m 0
 333 -20 100 184 100 510 c 0
 100 836 352 1040 639 1040 c 0
 926 1040 1179 836 1179 510 c 0
 1179 184 945 -20 639 -20 c 0
639 973 m 0
 441 973 329 773 329 510 c 0
 329 247 421 47 639 47 c 0
 857 47 950 247 950 510 c 0
 950 773 837 973 639 973 c 0
EndSplineSet
EndChar

StartChar: r.smcp
Encoding: 65557 -1 449
GlifName: r.smcp
Width: 1085
Flags: HW
AnchorPoint: "top" 545 1020 basechar 0
AnchorPoint: "bottom" 625 0 basechar 0
AnchorPoint: "cedilla" 295 0 basechar 0
LayerCount: 2
Fore
SplineSet
585 500 m 2
 345 500 l 1
 345 541 l 1
 585 541 l 2
 726 541 776 623 776 741 c 4
 776 859 726 947 585 947 c 2
 85 947 l 1
 85 1020 l 1
 585 1020 l 2
 837 1020 975 901 975 741 c 4
 975 581 857 500 585 500 c 2
85 73 m 1
 516 73 l 1
 516 0 l 1
 85 0 l 1
 85 73 l 1
206 1020 m 1
 395 1020 l 1
 395 0 l 1
 206 0 l 1
 206 1020 l 1
1085 10 m 1
 1053 -8 1027 -20 965 -20 c 0
 559 -20 977 469 545 469 c 2
 345 469 l 1
 345 506 l 1
 585 506 l 2
 1131 506 839 58 1001 58 c 0
 1023 58 1043 67 1060 79 c 1
 1085 10 l 1
EndSplineSet
EndChar

StartChar: s.smcp
Encoding: 65558 -1 450
GlifName: s.smcp
Width: 1012
Flags: HW
AnchorPoint: "top" 559 1020 basechar 0
AnchorPoint: "bottom" 531 0 basechar 0
AnchorPoint: "cedilla" 528 0 basechar 0
LayerCount: 2
Fore
SplineSet
865 729 m 1
 793 729 l 1
 753 852 654 961 516 961 c 0
 385 961 328 899 328 830 c 0
 328 610 912 660 912 290 c 0
 912 80 765 -29 563 -29 c 0
 316 -29 178 181 130 321 c 1
 202 321 l 1
 242 223 340 47 533 47 c 0
 695 47 768 111 768 220 c 0
 768 480 182 400 182 770 c 0
 182 941 311 1040 497 1040 c 0
 683 1040 825 897 865 729 c 1
803 1040 m 1
 865 1040 l 1
 865 729 l 1
 824 806 779 814 723 910 c 1
 803 1040 l 1
192 -20 m 1
 130 -20 l 1
 130 321 l 1
 188 228 220 203 266 118 c 1
 192 -20 l 1
EndSplineSet
EndChar

StartChar: t.smcp
Encoding: 65559 -1 451
GlifName: t.smcp
Width: 1197
Flags: HW
AnchorPoint: "top" 601 1020 basechar 0
AnchorPoint: "bottom" 597 0 basechar 0
AnchorPoint: "cedilla" 598 0 basechar 0
LayerCount: 2
Fore
SplineSet
333 73 m 1
 863 73 l 1
 863 0 l 1
 333 0 l 1
 333 73 l 1
503 1000 m 1
 694 1000 l 1
 694 0 l 1
 503 0 l 1
 503 1000 l 1
844 947 m 2
 354 947 l 2
 170 947 144 864 144 640 c 1
 70 640 l 1
 70 1020 l 1
 1127 1020 l 1
 1127 640 l 1
 1054 640 l 1
 1054 864 1028 947 844 947 c 2
EndSplineSet
EndChar

StartChar: u.smcp
Encoding: 65560 -1 452
GlifName: u.smcp
Width: 1196
Flags: HW
AnchorPoint: "top" 642 1020 basechar 0
AnchorPoint: "bottom" 622 0 basechar 0
AnchorPoint: "cedilla" 622 0 basechar 0
LayerCount: 2
Fore
SplineSet
816 1020 m 1
 1146 1020 l 1
 1146 947 l 1
 816 947 l 1
 816 1020 l 1
50 1020 m 1
 521 1020 l 1
 521 947 l 1
 50 947 l 1
 50 1020 l 1
944 1020 m 1
 1016 1020 l 1
 1016 390 l 6
 1016 120 856 -29 610 -29 c 0
 334 -29 180 104 180 390 c 6
 180 1020 l 1
 370 1020 l 1
 370 410 l 6
 370 206 432 53 650 53 c 0
 809 53 944 145 944 390 c 6
 944 1020 l 1
EndSplineSet
EndChar

StartChar: v.smcp
Encoding: 65561 -1 453
GlifName: v.smcp
Width: 1198
Flags: HW
AnchorPoint: "cedilla" 822 0 basechar 0
AnchorPoint: "top" 710 1020 basechar 0
AnchorPoint: "bottom" 604 0 basechar 0
LayerCount: 2
Fore
SplineSet
1198 947 m 1
 841 947 l 1
 841 1020 l 1
 1198 1020 l 1
 1198 947 l 1
500 947 m 1
 0 947 l 1
 0 1020 l 1
 500 1020 l 1
 500 947 l 1
661 213 m 1
 1017 1020 l 1
 1101 1020 l 1
 626 -29 l 1
 559 -29 l 1
 91 1020 l 1
 311 1020 l 1
 661 213 l 1
EndSplineSet
EndChar

StartChar: w.smcp
Encoding: 65562 -1 454
GlifName: w.smcp
Width: 1576
Flags: HW
AnchorPoint: "top" 808 1020 basechar 0
AnchorPoint: "bottom" 838 0 basechar 0
LayerCount: 2
Fore
SplineSet
855 781 m 1
 586 -20 l 1
 506 -20 l 1
 129 1020 l 1
 328 1020 l 1
 608 286 l 1
 793 836 l 1
 855 781 l 1
1576 947 m 1
 1293 947 l 1
 1293 1020 l 1
 1576 1020 l 1
 1576 947 l 1
893 1020 m 1
 1177 286 l 1
 1423 1020 l 1
 1501 1011 l 1
 1155 -20 l 1
 1075 -20 l 1
 692 1020 l 1
 893 1020 l 1
1133 947 m 1
 0 947 l 1
 0 1020 l 1
 1133 1020 l 1
 1133 947 l 1
EndSplineSet
EndChar

StartChar: x.smcp
Encoding: 65563 -1 455
GlifName: x.smcp
Width: 1244
Flags: HW
AnchorPoint: "top" 662 1020 basechar 0
AnchorPoint: "bottom" 572 0 basechar 0
LayerCount: 2
Fore
SplineSet
661 514 m 1
 569 514 l 1
 981 1016 l 1
 1064 1016 l 1
 661 514 l 1
192 0 m 1
 104 0 l 1
 596 594 l 1
 684 594 l 1
 192 0 l 1
730 73 m 1
 1214 73 l 1
 1214 0 l 1
 730 0 l 1
 730 73 l 1
30 73 m 1
 395 73 l 1
 395 0 l 1
 30 0 l 1
 30 73 l 1
530 947 m 1
 71 947 l 1
 71 1020 l 1
 530 1020 l 1
 530 947 l 1
1133 947 m 1
 807 947 l 1
 807 1020 l 1
 1133 1020 l 1
 1133 947 l 1
1135 0 m 1
 895 0 l 1
 140 1020 l 1
 372 1020 l 1
 1135 0 l 1
EndSplineSet
EndChar

StartChar: y.smcp
Encoding: 65564 -1 456
GlifName: y.smcp
Width: 1150
Flags: HW
AnchorPoint: "top" 592 1020 basechar 0
AnchorPoint: "bottom" 582 0 basechar 0
LayerCount: 2
Fore
SplineSet
1130 947 m 1
 835 947 l 1
 835 1020 l 1
 1130 1020 l 1
 1130 947 l 1
481 947 m 1
 0 947 l 1
 0 1020 l 1
 481 1020 l 1
 481 947 l 1
360 73 m 1
 830 73 l 1
 830 0 l 1
 360 0 l 1
 360 73 l 1
638 539 m 5
 1017 1016 l 1
 1101 1016 l 1
 680 476 l 5
 680 0 l 1
 490 0 l 1
 490 431 l 5
 70 1020 l 1
 290 1020 l 1
 638 539 l 5
EndSplineSet
EndChar

StartChar: z.smcp
Encoding: 65565 -1 457
GlifName: z.smcp
Width: 1066
Flags: HW
AnchorPoint: "top" 522 1020 basechar 0
AnchorPoint: "bottom" 552 0 basechar 0
LayerCount: 2
Fore
SplineSet
134 1020 m 1
 960 1020 l 1
 960 947 l 1
 330 73 l 5
 643 73 l 2
 846 73 892 146 892 330 c 1
 966 330 l 1
 966 0 l 1
 100 0 l 1
 100 73 l 1
 730 947 l 1
 458 947 l 2
 255 947 207 874 207 730 c 1
 134 730 l 1
 134 1020 l 1
EndSplineSet
EndChar

StartChar: ae.smcp
Encoding: 65576 -1 468
GlifName: ae.smcp
Width: 1718
Flags: HW
LayerCount: 2
Fore
SplineSet
365 366 m 1
 985 366 l 1
 985 293 l 1
 365 293 l 1
 365 366 l 1
0 73 m 1
 360 73 l 1
 360 0 l 1
 0 0 l 1
 0 73 l 1
162 0 m 1
 69 0 l 1
 811 1020 l 5
 905 1020 l 5
 162 0 l 1
1535 350 m 1
 1608 350 l 1
 1608 0 l 1
 725 0 l 1
 725 73 l 1
 1275 73 l 2
 1448 73 1535 96 1535 350 c 1
856 1020 m 1
 1046 1020 l 1
 1046 0 l 1
 856 0 l 1
 856 1020 l 1
945 1020 m 1
 1599 1020 l 1
 1599 710 l 1
 1525 710 l 1
 1525 924 1440 947 1306 947 c 2
 945 947 l 1
 945 1020 l 1
1265 377 m 1
 1265 481 1198 509 1115 509 c 2
 1005 509 l 1
 1005 582 l 1
 1115 582 l 2
 1198 582 1265 602 1265 706 c 1
 1339 706 l 1
 1339 377 l 1
 1265 377 l 1
EndSplineSet
EndChar

StartChar: oe.smcp
Encoding: 65593 -1 485
GlifName: oe.smcp
Width: 1613
Flags: HW
LayerCount: 2
Fore
SplineSet
620 1020 m 1
 620 947 l 1
 422 947 309 773 309 510 c 0
 309 247 402 73 620 73 c 1
 620 0 l 1
 314 0 80 184 80 510 c 0
 80 836 333 1020 620 1020 c 1
EndSplineSet
Refer: 436 -1 N 1 0 0 1 535 0 2
EndChar

StartChar: oslash.smcp
Encoding: 65594 -1 486
GlifName: oslash.smcp
Width: 1239
Flags: HW
LayerCount: 2
Fore
SplineSet
1050 1081 m 1
 1133 1081 l 1
 183 -60 l 1
 100 -60 l 1
 1050 1081 l 1
EndSplineSet
Refer: 446 -1 N 1 0 0 1 0 0 2
EndChar

StartChar: thorn.smcp
Encoding: 65600 -1 492
GlifName: thorn.smcp
Width: 1085
Flags: HW
AnchorPoint: "top" 355 1020 basechar 0
AnchorPoint: "bottom" 351 0 basechar 0
AnchorPoint: "cedilla" 351 0 basechar 0
LayerCount: 2
Fore
SplineSet
85 73 m 1
 635 73 l 1
 635 0 l 1
 85 0 l 1
 85 73 l 1
85 1020 m 1
 635 1020 l 1
 635 947 l 1
 85 947 l 1
 85 1020 l 1
256 1020 m 1
 445 1020 l 1
 445 0 l 1
 256 0 l 1
 256 1020 l 1
575 194 m 6
 365 194 l 5
 365 266 l 5
 575 266 l 6
 736 266 806 381 806 509 c 4
 806 637 736 752 575 752 c 6
 395 752 l 5
 395 825 l 5
 575 825 l 6
 876 825 1025 719 1025 509 c 4
 1025 299 876 194 575 194 c 6
EndSplineSet
EndChar

StartChar: germandbls.smcp
Encoding: 65603 -1 495
GlifName: germandbls.smcp
Width: 1387
VWidth: 2309
Flags: HW
LayerCount: 2
Fore
SplineSet
85 73 m 1
 546 73 l 1
 546 0 l 1
 85 0 l 1
 85 73 l 1
972 600 m 1
 931 611 839 618 772 628 c 1
 1005 898 l 1
 935 933 860 967 752 967 c 0
 544 967 416 785 416 551 c 2
 416 0 l 1
 216 0 l 1
 216 572 l 2
 216 868 486 1040 752 1040 c 0
 949 1040 1147 908 1188 862 c 1
 972 600 l 1
740 221 m 1
 740 151 792 57 908 57 c 0
 1026 57 1117 171 1117 299 c 0
 1117 487 940 555 772 555 c 1
 772 628 l 1
 1084 628 1327 550 1327 289 c 0
 1327 89 1159 -20 947 -20 c 0
 733 -20 665 116 665 221 c 0
 665 303 716 352 786 352 c 0
 847 352 894 312 894 240 c 0
 894 176 840 130 781 130 c 0
 720 130 667 171 667 221 c 1
 740 221 l 1
EndSplineSet
EndChar

StartChar: lslash.smcp
Encoding: 65614 -1 505
GlifName: lslash.smcp
Width: 999
Flags: HW
LayerCount: 2
Fore
SplineSet
85 451 m 1
 606 740 l 5
 606 656 l 5
 85 366 l 1
 85 451 l 1
EndSplineSet
Refer: 443 -1 N 1 0 0 1 0 0 3
EndChar

StartChar: eng.smcp
Encoding: 65617 -1 508
GlifName: eng.smcp
Width: 1223
VWidth: 2309
Flags: HW
LayerCount: 2
Fore
SplineSet
1112 739 m 1
 1111 -23 l 2
 1111 -283 1058 -520 798 -520 c 0
 636 -520 552 -415 552 -302 c 0
 552 -220 605 -178 666 -178 c 0
 716 -178 777 -206 777 -286 c 0
 777 -337 737 -395 670 -395 c 0
 612 -395 554 -362 554 -302 c 1
 627 -302 l 1
 627 -382 688 -451 787 -451 c 0
 967 -451 932 -214 932 40 c 2
 932 702 l 1
 1112 739 l 1
222 947 m 1
 82 947 l 1
 82 1020 l 1
 393 1020 l 1
 393 0 l 1
 222 0 l 1
 222 947 l 1
82 73 m 1
 531 73 l 1
 531 0 l 1
 82 0 l 1
 82 73 l 1
1112 739 m 9
 932 702 l 1
 932 870 886 952 759 952 c 4
 558 952 393 718 393 551 c 1
 348 551 l 1
 348 716 494 1039 792 1039 c 4
 1041 1039 1112 913 1112 739 c 9
EndSplineSet
EndChar

StartChar: one.oldstyle
Encoding: 65635 -1 526
GlifName: one.oldstyle
Width: 869
VWidth: 2309
Flags: HW
LayerCount: 2
Fore
SplineSet
100 73 m 1
 770 73 l 1
 770 0 l 1
 100 0 l 1
 100 73 l 1
134 920 m 1
 550 920 l 1
 550 20 l 1
 359 20 l 1
 359 847 l 1
 134 847 l 1
 134 920 l 1
EndSplineSet
Substitution2: "Tabular Numbers lookup" one.oldtab
EndChar

StartChar: two.oldstyle
Encoding: 65636 -1 527
GlifName: two.oldstyle
Width: 929
VWidth: 2309
Flags: HW
LayerCount: 2
Fore
SplineSet
859 0 m 5
 80 0 l 1
 80 130 l 1
 372 337 l 2
 555 467 598 552 598 660 c 0
 598 813 502 865 390 865 c 0
 292 865 167 784 167 664 c 1
 109 664 l 1
 109 704 172 744 238 744 c 0
 297 744 355 702 355 632 c 0
 355 552 300 514 230 514 c 0
 160 514 107 560 107 664 c 0
 107 798 251 940 450 940 c 0
 672 940 798 841 798 681 c 0
 798 541 625 438 501 357 c 2
 231 180 l 1
 787 180 l 5
 787 330 l 5
 859 330 l 5
 859 0 l 5
EndSplineSet
Substitution2: "Tabular Numbers lookup" two.oldtab
EndChar

StartChar: four.oldstyle
Encoding: 65638 -1 529
GlifName: four.oldstyle
Width: 1099
VWidth: 2309
Flags: HW
LayerCount: 2
Fore
SplineSet
860 -500 m 1
 670 -500 l 1
 670 736 l 1
 196 73 l 1
 1080 73 l 1
 1080 0 l 1
 59 0 l 1
 700 920 l 1
 860 920 l 1
 860 -500 l 1
EndSplineSet
Substitution2: "Tabular Numbers lookup" four.oldtab
EndChar

